<svg width="286" height="1189" viewBox="0 0 286 1189" fill="none" xmlns="http://www.w3.org/2000/svg">
<rect x="38.5" y="1156.56" width="214" height="29.9429" rx="2.5" fill="white" stroke="black" stroke-width="5"/>
<rect x="52.5" y="1156.56" width="185" height="29.9429" rx="2.5" fill="#112130" stroke="black" stroke-width="5"/>
<rect x="10.5" y="842.071" width="214" height="29.9429" rx="2.5" fill="white" stroke="black" stroke-width="5"/>
<rect x="24.5" y="842.071" width="185" height="29.9429" rx="2.5" fill="#112130" stroke="black" stroke-width="5"/>
<rect x="38.5" y="527.586" width="214" height="29.9429" rx="2.5" fill="white" stroke="black" stroke-width="5"/>
<rect x="52.5" y="527.586" width="185" height="29.9429" rx="2.5" fill="#112130" stroke="black" stroke-width="5"/>
<rect x="24.5" y="213.1" width="214" height="29.9429" rx="2.5" fill="white" stroke="black" stroke-width="5"/>
<rect x="38.5" y="213.1" width="185" height="29.9429" rx="2.5" fill="#112130" stroke="black" stroke-width="5"/>
<rect x="38.5" y="911.957" width="214" height="29.9429" rx="2.5" fill="white" stroke="black" stroke-width="5"/>
<rect x="52.5" y="911.957" width="185" height="29.9429" rx="2.5" fill="#4B7166" stroke="black" stroke-width="5"/>
<rect x="24.5" y="597.472" width="214" height="29.9429" rx="2.5" fill="white" stroke="black" stroke-width="5"/>
<rect x="38.5" y="597.472" width="185" height="29.9429" rx="2.5" fill="#4B7166" stroke="black" stroke-width="5"/>
<rect x="24.5" y="282.986" width="214" height="29.9429" rx="2.5" fill="white" stroke="black" stroke-width="5"/>
<rect x="38.5" y="282.986" width="185" height="29.9429" rx="2.5" fill="#4B7166" stroke="black" stroke-width="5"/>
<rect x="10.5" y="1121.61" width="214" height="29.9429" rx="2.5" fill="white" stroke="black" stroke-width="5"/>
<rect x="24.5" y="1121.61" width="185" height="29.9429" rx="2.5" fill="#612628" stroke="black" stroke-width="5"/>
<rect x="56.5" y="807.128" width="214" height="29.9429" rx="2.5" fill="white" stroke="black" stroke-width="5"/>
<rect x="70.5" y="807.128" width="185" height="29.9429" rx="2.5" fill="#612628" stroke="black" stroke-width="5"/>
<rect x="69.5" y="492.643" width="214" height="29.9429" rx="2.5" fill="white" stroke="black" stroke-width="5"/>
<rect x="83.5" y="492.643" width="185" height="29.9429" rx="2.5" fill="#612628" stroke="black" stroke-width="5"/>
<rect x="2.5" y="178.157" width="214" height="29.9429" rx="2.5" fill="white" stroke="black" stroke-width="5"/>
<rect x="16.5" y="178.157" width="185" height="29.9429" rx="2.5" fill="#612628" stroke="black" stroke-width="5"/>
<rect x="38.5" y="877.014" width="214" height="29.9429" rx="2.5" fill="white" stroke="black" stroke-width="5"/>
<rect x="52.5" y="877.014" width="185" height="29.9429" rx="2.5" fill="#2A4944" stroke="black" stroke-width="5"/>
<rect x="52.5" y="562.528" width="214" height="29.9429" rx="2.5" fill="white" stroke="black" stroke-width="5"/>
<rect x="66.5" y="562.528" width="185" height="29.9429" rx="2.5" fill="#2A4944" stroke="black" stroke-width="5"/>
<rect x="44.5" y="248.043" width="214" height="29.9429" rx="2.5" fill="white" stroke="black" stroke-width="5"/>
<rect x="58.5" y="248.043" width="185" height="29.9429" rx="2.5" fill="#2A4944" stroke="black" stroke-width="5"/>
<rect x="20.5" y="1086.67" width="214" height="29.9429" rx="2.5" fill="white" stroke="black" stroke-width="5"/>
<rect x="34.5" y="1086.67" width="185" height="29.9429" rx="2.5" fill="#CE5945" stroke="black" stroke-width="5"/>
<rect x="16.5" y="772.186" width="214" height="29.9429" rx="2.5" fill="white" stroke="black" stroke-width="5"/>
<rect x="30.5" y="772.186" width="185" height="29.9429" rx="2.5" fill="#CE5945" stroke="black" stroke-width="5"/>
<rect x="24.5" y="457.7" width="214" height="29.9429" rx="2.5" fill="white" stroke="black" stroke-width="5"/>
<rect x="38.5" y="457.7" width="185" height="29.9429" rx="2.5" fill="#CE5945" stroke="black" stroke-width="5"/>
<rect x="2.5" y="143.214" width="214" height="29.9429" rx="2.5" fill="white" stroke="black" stroke-width="5"/>
<rect x="16.5" y="143.214" width="185" height="29.9429" rx="2.5" fill="#CE5945" stroke="black" stroke-width="5"/>
<rect x="38.5" y="1051.73" width="214" height="29.9429" rx="2.5" fill="white" stroke="black" stroke-width="5"/>
<rect x="52.5" y="1051.73" width="185" height="29.9429" rx="2.5" fill="#D69F5C" stroke="black" stroke-width="5"/>
<rect x="24.5" y="737.243" width="214" height="29.9429" rx="2.5" fill="white" stroke="black" stroke-width="5"/>
<rect x="38.5" y="737.243" width="185" height="29.9429" rx="2.5" fill="#D69F5C" stroke="black" stroke-width="5"/>
<rect x="24.5" y="422.757" width="214" height="29.9429" rx="2.5" fill="white" stroke="black" stroke-width="5"/>
<rect x="38.5" y="422.757" width="185" height="29.9429" rx="2.5" fill="#D69F5C" stroke="black" stroke-width="5"/>
<rect x="38.5" y="108.271" width="214" height="29.9429" rx="2.5" fill="white" stroke="black" stroke-width="5"/>
<rect x="52.5" y="108.271" width="185" height="29.9429" rx="2.5" fill="#D69F5C" stroke="black" stroke-width="5"/>
<rect x="60.5" y="1016.79" width="214" height="29.9429" rx="2.5" fill="white" stroke="black" stroke-width="5"/>
<rect x="74.5" y="1016.79" width="185" height="29.9429" rx="2.5" fill="#EFB4B6" stroke="black" stroke-width="5"/>
<rect x="48.5" y="702.3" width="214" height="29.9429" rx="2.5" fill="white" stroke="black" stroke-width="5"/>
<rect x="62.5" y="702.3" width="185" height="29.9429" rx="2.5" fill="#EFB4B6" stroke="black" stroke-width="5"/>
<rect x="44.5" y="387.814" width="214" height="29.9429" rx="2.5" fill="white" stroke="black" stroke-width="5"/>
<rect x="58.5" y="387.814" width="185" height="29.9429" rx="2.5" fill="#EFB4B6" stroke="black" stroke-width="5"/>
<rect x="52.5" y="73.3286" width="214" height="29.9429" rx="2.5" fill="white" stroke="black" stroke-width="5"/>
<rect x="66.5" y="73.3286" width="185" height="29.9429" rx="2.5" fill="#EFB4B6" stroke="black" stroke-width="5"/>
<rect x="60.5" y="981.843" width="214" height="29.9429" rx="2.5" fill="white" stroke="black" stroke-width="5"/>
<rect x="74.5" y="981.843" width="185" height="29.9429" rx="2.5" fill="#C99FAB" stroke="black" stroke-width="5"/>
<rect x="38.5" y="667.357" width="214" height="29.9429" rx="2.5" fill="white" stroke="black" stroke-width="5"/>
<rect x="52.5" y="667.357" width="185" height="29.9429" rx="2.5" fill="#C99FAB" stroke="black" stroke-width="5"/>
<rect x="30.5" y="352.872" width="214" height="29.9429" rx="2.5" fill="white" stroke="black" stroke-width="5"/>
<rect x="44.5" y="352.872" width="185" height="29.9429" rx="2.5" fill="#C99FAB" stroke="black" stroke-width="5"/>
<rect x="52.5" y="38.3857" width="214" height="29.9429" rx="2.5" fill="white" stroke="black" stroke-width="5"/>
<rect x="66.5" y="38.3857" width="185" height="29.9429" rx="2.5" fill="#C99FAB" stroke="black" stroke-width="5"/>
<rect x="16.5" y="946.9" width="214" height="29.9429" rx="2.5" fill="white" stroke="black" stroke-width="5"/>
<rect x="30.5" y="946.9" width="185" height="29.9429" rx="2.5" fill="#81A09A" stroke="black" stroke-width="5"/>
<rect x="24.5" y="632.414" width="214" height="29.9429" rx="2.5" fill="white" stroke="black" stroke-width="5"/>
<rect x="38.5" y="632.414" width="185" height="29.9429" rx="2.5" fill="#81A09A" stroke="black" stroke-width="5"/>
<rect x="44.5" y="317.929" width="214" height="29.9429" rx="2.5" fill="white" stroke="black" stroke-width="5"/>
<rect x="58.5" y="317.929" width="185" height="29.9429" rx="2.5" fill="#81A09A" stroke="black" stroke-width="5"/>
<rect x="38.5" y="3.44287" width="214" height="29.9429" rx="2.5" fill="white" stroke="black" stroke-width="5"/>
<rect x="52.5" y="3.44287" width="185" height="29.9429" rx="2.5" fill="#81A09A" stroke="black" stroke-width="5"/>
</svg>
