<svg width="221" height="352" viewBox="0 0 221 352" fill="none" xmlns="http://www.w3.org/2000/svg">
<rect x="149.126" y="3.32232" width="75" height="345" rx="2.5" transform="rotate(25 149.126 3.32232)" fill="#F9E5CC" stroke="black" stroke-width="5"/>
<rect x="130.108" y="44.106" width="75" height="255" rx="2.5" transform="rotate(25 130.108 44.106)" fill="#97466F" stroke="black" stroke-width="5"/>
<path d="M91.9038 241.202C91.7675 241.324 91.5138 241.471 91.1427 241.642C90.7716 241.813 90.4678 241.897 90.2315 241.892C90.1996 241.904 90.1293 241.884 90.0205 241.834C89.8683 241.763 89.7095 241.649 89.5441 241.492C89.3788 241.336 89.3114 241.225 89.3418 241.16C89.4375 241.125 89.3555 240.875 89.0958 240.409C88.8245 239.912 88.6396 239.627 88.541 239.555C88.4641 239.493 88.4184 239.392 88.4039 239.253C88.3777 239.082 88.3639 238.969 88.3625 238.916C88.2392 238.726 88.1253 238.487 88.0208 238.2C87.9047 237.881 87.8184 237.669 87.7618 237.563C87.6936 237.425 87.5957 237.181 87.468 236.83C87.3185 236.469 87.1916 236.145 87.0871 235.858C86.852 235.113 86.6597 234.56 86.5103 234.199C85.8196 232.5 85.3866 231.583 85.2111 231.448C85.1995 231.416 85.1763 231.352 85.1414 231.257C85.1066 231.161 85.0819 231.044 85.0674 230.904C85.002 230.477 84.8939 230.056 84.743 229.641C84.6008 229.548 84.4174 229.317 84.1925 228.947C83.9677 228.578 83.7972 228.233 83.6811 227.914C83.523 227.629 83.333 227.355 83.1111 227.093C82.8776 226.798 82.6673 226.568 82.4802 226.401L82.217 226.199C82.1299 226.158 82.0393 226.182 81.9451 226.271C81.8292 226.349 81.7139 226.454 81.5994 226.586C81.4951 226.696 81.4117 226.79 81.3494 226.867C80.9638 227.296 80.6849 227.696 80.5124 228.065C80.1371 228.87 80.0454 229.834 80.2371 230.956C80.1603 231.291 80.1249 231.566 80.1308 231.78C80.0787 232.233 80.0164 232.508 79.944 232.607C79.8918 232.662 79.7483 232.714 79.5134 232.763C79.2785 232.813 79.0814 232.866 78.9219 232.925L78.0846 232.931L78.0016 231.661C77.7386 229.897 77.8404 228.514 78.307 227.514C78.4693 227.166 78.6548 226.881 78.8635 226.661C78.9548 226.465 79.0678 226.28 79.2026 226.104C79.3374 225.929 79.4258 225.824 79.4678 225.791C79.5678 225.52 79.9317 225.279 80.5594 225.069C81.1973 224.836 81.7953 224.718 82.3535 224.713C82.8668 224.635 83.33 224.692 83.7433 224.885C84.3958 225.189 85.071 225.928 85.7687 227.1C86.1111 227.843 86.587 228.952 87.1964 230.428C87.8058 231.903 88.1468 232.791 88.2194 233.089C88.2282 233.411 88.5648 234.336 89.2293 235.864C89.8938 237.392 90.2464 238.113 90.2869 238.026L90.3522 238.056C90.2217 237.995 90.373 237.245 90.8061 235.805C91.2275 234.333 91.6107 233.227 91.9556 232.488C92.0671 232.249 92.165 232.096 92.249 232.029C92.3563 232.026 92.415 232.014 92.4252 231.992C92.4237 231.938 92.4121 231.906 92.3904 231.896C92.3135 231.834 92.341 231.661 92.4729 231.379C92.7061 230.878 93.0779 230.337 93.5881 229.754C93.6402 229.699 93.7236 229.605 93.8381 229.473C93.9627 229.319 94.062 229.22 94.136 229.175C94.2099 229.13 94.2686 229.118 94.3121 229.138C94.344 229.126 94.4245 229.124 94.5535 229.131C94.6709 229.107 94.8203 229.07 95.0015 229.022C95.245 228.898 95.4212 228.861 95.5299 228.911C95.6822 228.982 95.6721 229.203 95.4997 229.573C95.378 229.834 95.1207 230.243 94.728 230.802C94.4643 231.367 94.2788 231.85 94.1717 232.25C94.1847 232.336 94.121 232.558 93.9805 232.916C93.8283 233.242 93.7117 233.492 93.6305 233.666C93.5581 233.765 93.4762 233.912 93.3849 234.108C93.1516 234.608 92.9742 235.386 92.8528 236.441C92.8254 237.011 92.6995 237.906 92.4751 239.125C92.2508 240.345 92.0603 241.037 91.9038 241.202ZM100.659 222.596C100.548 222.836 100.208 223.167 99.6396 223.591C99.0714 224.014 98.5698 224.323 98.1349 224.518C97.2636 224.853 96.2959 224.997 95.2316 224.951C94.1558 224.873 93.1502 224.616 92.2149 224.18C92.0191 224.089 91.7139 223.92 91.2991 223.674C90.0404 222.795 88.9193 221.65 87.9358 220.238C86.9408 218.795 86.235 217.327 85.8184 215.835C85.5818 215.036 85.4395 214.347 85.3915 213.769C85.3319 213.159 85.373 212.502 85.5149 211.801C85.5699 211.456 85.7495 210.957 86.0538 210.304C86.2465 209.891 86.5313 209.507 86.9082 209.153C87.2952 208.778 87.6902 208.499 88.0932 208.316C88.4745 208.123 88.7739 208.077 88.9914 208.179C89.1872 208.27 89.2967 208.347 89.3199 208.411C89.3532 208.453 89.3018 208.535 89.1655 208.657L89.0134 208.983L90.1117 209.098C90.3481 209.102 90.6228 209.138 90.936 209.205C91.2492 209.271 91.5255 209.36 91.7647 209.472C92.1562 209.654 92.8618 210.129 93.8813 210.896C94.879 211.652 95.5331 212.209 95.8435 212.565C95.9769 212.734 96.185 212.884 96.4678 213.015L97.8819 214.668C97.9066 214.785 97.9523 214.886 98.019 214.97C98.0857 215.054 98.1669 215.079 98.2626 215.044C98.3496 215.085 98.544 215.321 98.8457 215.753C99.1358 216.153 99.2656 216.386 99.2352 216.451C99.225 216.473 99.2207 216.51 99.2222 216.564C99.2019 216.607 99.2244 216.644 99.2896 216.675C99.3766 216.715 99.534 216.974 99.7618 217.451C99.9997 217.906 100.217 218.405 100.415 218.947C100.611 219.436 100.741 220.092 100.807 220.917C100.861 221.711 100.811 222.27 100.659 222.596ZM98.5582 221.736C98.8016 221.214 98.8421 220.73 98.6795 220.283C98.5895 219.738 98.3675 219.078 98.0135 218.304C97.6478 217.498 97.2489 216.849 96.8167 216.356C96.6136 215.996 96.3794 215.675 96.114 215.393C95.8587 215.088 95.3286 214.55 94.5237 213.777C94.3772 213.523 94.156 213.288 93.8601 213.071C93.5527 212.821 93.2576 212.631 92.9748 212.499C92.0178 212.052 91.3688 211.684 91.028 211.392C90.419 211.108 90.0333 210.942 89.8709 210.892C89.6867 210.833 89.4721 210.839 89.2271 210.91C88.9198 211.058 88.7002 211.273 88.5683 211.556C88.4973 211.708 88.4525 212.032 88.4338 212.526C88.3933 213.01 88.3869 213.365 88.4145 213.59C88.3971 213.741 88.3733 213.849 88.3428 213.914C88.282 214.044 88.2044 214.154 88.1102 214.242C88.0044 214.299 87.908 214.307 87.821 214.266C87.6687 214.195 87.5622 214.225 87.5013 214.356C87.4202 214.53 87.4391 214.83 87.5581 215.256C87.6771 215.682 87.8621 216.166 88.1131 216.706C88.2989 217.217 88.5382 217.726 88.8313 218.233C89.1127 218.708 89.2969 218.966 89.3839 219.007C89.4492 219.037 89.5485 219.137 89.6819 219.305C89.8255 219.451 89.9416 219.572 90.03 219.666C90.1983 219.93 90.5261 220.334 91.0134 220.879C91.479 221.414 91.8271 221.775 92.0577 221.962L93.8195 222.783C94.3633 223.037 94.8027 223.202 95.1376 223.279C95.4726 223.356 95.8437 223.383 96.2512 223.361C96.444 223.345 96.6948 223.29 97.0036 223.196C97.3124 223.101 97.5096 223.048 97.5951 223.035C97.8184 222.953 97.9829 222.884 98.0887 222.828C98.183 222.739 98.2656 222.619 98.3366 222.467C98.4177 222.293 98.4916 222.049 98.5582 221.736ZM107.509 207.908C107.397 208.147 107.057 208.479 106.489 208.902C105.921 209.326 105.419 209.635 104.984 209.829C104.113 210.164 103.145 210.309 102.081 210.263C101.005 210.185 99.9996 209.928 99.0643 209.492C98.8685 209.4 98.5633 209.231 98.1485 208.985C96.8898 208.107 95.7687 206.962 94.7852 205.55C93.7902 204.106 93.0844 202.638 92.6678 201.146C92.4312 200.348 92.2889 199.659 92.2409 199.08C92.1813 198.47 92.2224 197.814 92.3643 197.112C92.4193 196.767 92.5989 196.268 92.9032 195.616C93.0959 195.202 93.3807 194.819 93.7576 194.465C94.1446 194.089 94.5396 193.81 94.9426 193.627C95.3239 193.434 95.6233 193.389 95.8408 193.49C96.0366 193.581 96.1461 193.659 96.1693 193.723C96.2026 193.765 96.1512 193.847 96.0149 193.968L95.8628 194.295L96.9611 194.41C97.1974 194.414 97.4722 194.449 97.7854 194.516C98.0986 194.583 98.3748 194.672 98.6141 194.783C99.0056 194.966 99.7111 195.44 100.731 196.207C101.728 196.964 102.382 197.52 102.693 197.877C102.826 198.045 103.034 198.195 103.317 198.327L104.731 199.979C104.756 200.097 104.802 200.197 104.868 200.282C104.935 200.366 105.016 200.39 105.112 200.355C105.199 200.396 105.393 200.632 105.695 201.064C105.985 201.464 106.115 201.697 106.085 201.762C106.074 201.784 106.07 201.822 106.072 201.875C106.051 201.919 106.074 201.956 106.139 201.986C106.226 202.027 106.383 202.286 106.611 202.763C106.849 203.218 107.067 203.716 107.264 204.259C107.46 204.747 107.591 205.404 107.656 206.229C107.71 207.022 107.661 207.582 107.509 207.908ZM105.408 207.047C105.651 206.525 105.691 206.041 105.529 205.594C105.439 205.049 105.217 204.39 104.863 203.616C104.497 202.81 104.098 202.16 103.666 201.667C103.463 201.308 103.229 200.987 102.963 200.704C102.708 200.4 102.178 199.861 101.373 199.089C101.227 198.835 101.005 198.599 100.71 198.382C100.402 198.133 100.107 197.942 99.8242 197.81C98.8671 197.364 98.2182 196.995 97.8774 196.704C97.2684 196.42 96.8826 196.253 96.7202 196.204C96.5361 196.145 96.3215 196.15 96.0765 196.222C95.7692 196.37 95.5496 196.585 95.4177 196.868C95.3467 197.02 95.3019 197.343 95.2831 197.838C95.2427 198.322 95.2363 198.676 95.2639 198.901C95.2465 199.052 95.2226 199.16 95.1922 199.225C95.1314 199.356 95.0538 199.465 94.9596 199.554C94.8538 199.61 94.7574 199.618 94.6704 199.578C94.5181 199.507 94.4115 199.536 94.3507 199.667C94.2695 199.841 94.2885 200.141 94.4075 200.567C94.5265 200.994 94.7115 201.477 94.9625 202.018C95.1482 202.528 95.3876 203.037 95.6807 203.544C95.9621 204.02 96.1463 204.278 96.2333 204.318C96.2985 204.349 96.3979 204.448 96.5313 204.616C96.6749 204.763 96.7909 204.883 96.8794 204.977C97.0477 205.241 97.3755 205.645 97.8628 206.19C98.3284 206.725 98.6765 207.086 98.907 207.273L100.669 208.095C101.213 208.348 101.652 208.514 101.987 208.59C102.322 208.667 102.693 208.694 103.101 208.673C103.293 208.657 103.544 208.601 103.853 208.507C104.162 208.413 104.359 208.359 104.444 208.346C104.668 208.265 104.832 208.196 104.938 208.139C105.032 208.051 105.115 207.93 105.186 207.778C105.267 207.604 105.341 207.36 105.408 207.047ZM113.958 194.503C113.553 195.373 113.062 196.084 112.487 196.637C111.9 197.157 111.431 197.31 111.082 197.094C110.853 196.96 110.716 196.857 110.671 196.783C110.614 196.677 110.626 196.537 110.707 196.363L111.092 195.708C111.402 195.27 111.628 194.899 111.77 194.595C112.227 193.616 112.509 192.529 112.616 191.334C112.722 190.14 112.637 189.159 112.358 188.394C112.101 187.639 111.701 187.134 111.157 186.881C110.548 186.597 109.858 186.685 109.087 187.147C108.611 187.428 108.056 187.937 107.421 188.674C106.786 189.411 106.384 190.017 106.215 190.495C106.206 190.57 106.176 190.662 106.126 190.771C106.024 190.988 105.8 191.215 105.452 191.449C105.143 191.544 104.747 191.598 104.264 191.611C104.145 191.582 104.062 191.477 104.014 191.295C103.976 191.093 103.932 190.648 103.881 189.962C103.808 189.266 103.746 188.377 103.695 187.294C103.574 185.622 103.472 184.422 103.388 183.695C103.292 182.935 103.189 182.331 103.08 181.883C102.944 181.608 102.814 181.375 102.691 181.185C102.568 180.995 102.462 180.88 102.375 180.839C102.288 180.799 102.182 180.829 102.056 180.929C101.93 181.029 101.763 181.216 101.556 181.49C101.196 182.09 100.895 182.651 100.651 183.173C100.469 183.565 100.41 183.776 100.476 183.806L100.415 183.937C100.278 184.059 100.124 184.503 99.9518 185.27C99.7896 186.016 99.747 186.419 99.8238 186.482C99.879 186.534 99.8812 186.813 99.8306 187.319C99.78 187.825 99.7294 188.132 99.6786 188.241C99.554 188.395 99.2561 188.494 98.7849 188.539C98.3238 188.563 98.0324 188.506 97.9105 188.37C97.7452 188.213 97.6572 187.351 97.6466 185.784C97.7306 185.32 97.9739 184.599 98.3767 183.622C98.7679 182.613 99.0917 181.89 99.3482 181.454C100.479 179.597 101.812 178.868 103.347 179.267C103.595 179.303 103.806 179.361 103.98 179.443C104.219 179.554 104.407 179.748 104.544 180.023C104.668 180.267 104.842 180.745 105.066 181.458L105.223 182.485C105.345 183.416 105.439 184.32 105.506 185.199C105.53 185.263 105.588 185.621 105.681 186.273C105.765 187.001 105.84 187.38 105.905 187.411C105.969 187.387 106.091 187.325 106.27 187.224C106.438 187.09 106.639 186.972 106.873 186.869C107.332 186.395 107.912 186.003 108.612 185.694C109.291 185.375 109.892 185.165 110.415 185.065C111.124 185.078 111.75 185.211 112.294 185.464C112.99 185.789 113.546 186.3 113.963 186.997C114.367 187.663 114.621 188.509 114.725 189.537C114.777 190.277 114.735 191.105 114.599 192.021C114.463 192.937 114.25 193.765 113.958 194.503ZM114.533 179.47C114.33 179.905 114.098 180.26 113.838 180.536C113.696 180.841 113.561 181.043 113.435 181.143C113.319 181.221 113.154 181.263 112.94 181.269C112.683 181.308 112.5 181.303 112.391 181.252C112.261 181.191 112.219 181.026 112.265 180.756C112.29 180.476 112.411 180.017 112.63 179.377C112.782 178.654 113.247 177.374 114.023 175.538C114.778 173.692 115.439 172.16 116.007 170.942C116.271 170.377 116.481 170.011 116.638 169.846C116.773 169.67 117.004 169.514 117.334 169.376C117.716 169.237 118.027 169.223 118.267 169.334C118.462 169.426 118.563 169.578 118.569 169.793C118.585 169.986 118.505 170.214 118.33 170.476L117.535 172.608C117.222 173.336 116.757 174.417 116.142 175.851C115.536 177.263 115 178.47 114.533 179.47ZM126.091 167.887C125.955 168.009 125.701 168.155 125.33 168.327C124.959 168.498 124.655 168.581 124.419 168.577C124.387 168.589 124.317 168.569 124.208 168.518C124.056 168.447 123.897 168.334 123.732 168.177C123.566 168.021 123.499 167.91 123.529 167.844C123.625 167.81 123.543 167.559 123.283 167.094C123.012 166.597 122.827 166.312 122.728 166.24C122.652 166.177 122.606 166.077 122.591 165.937C122.565 165.766 122.551 165.654 122.55 165.6C122.427 165.41 122.313 165.172 122.208 164.885C122.092 164.566 122.006 164.353 121.949 164.248C121.881 164.11 121.783 163.866 121.655 163.515C121.506 163.154 121.379 162.83 121.275 162.543C121.039 161.798 120.847 161.245 120.698 160.884C120.007 159.184 119.574 158.268 119.399 158.133C119.387 158.101 119.364 158.037 119.329 157.941C119.294 157.846 119.269 157.728 119.255 157.589C119.19 157.161 119.081 156.74 118.93 156.326C118.788 156.233 118.605 156.002 118.38 155.632C118.155 155.262 117.985 154.918 117.869 154.599C117.711 154.314 117.52 154.04 117.299 153.777C117.065 153.483 116.855 153.252 116.668 153.086L116.404 152.884C116.317 152.843 116.227 152.867 116.133 152.955C116.017 153.034 115.901 153.139 115.787 153.271C115.683 153.381 115.599 153.475 115.537 153.552C115.151 153.981 114.872 154.38 114.7 154.75C114.325 155.555 114.233 156.518 114.425 157.641C114.348 157.976 114.312 158.25 114.318 158.465C114.266 158.917 114.204 159.193 114.131 159.291C114.079 159.346 113.936 159.399 113.701 159.448C113.466 159.497 113.269 159.551 113.109 159.609L112.272 159.616L112.189 158.346C111.926 156.581 112.028 155.199 112.494 154.198C112.657 153.85 112.842 153.566 113.051 153.346C113.142 153.15 113.255 152.964 113.39 152.789C113.525 152.613 113.613 152.509 113.655 152.476C113.755 152.204 114.119 151.964 114.747 151.753C115.385 151.521 115.983 151.403 116.541 151.398C117.054 151.32 117.518 151.377 117.931 151.57C118.583 151.874 119.258 152.612 119.956 153.785C120.299 154.527 120.775 155.636 121.384 157.112C121.993 158.588 122.334 159.475 122.407 159.774C122.416 160.096 122.752 161.021 123.417 162.549C124.081 164.077 124.434 164.797 124.474 164.71L124.54 164.741C124.409 164.68 124.56 163.929 124.994 162.49C125.415 161.018 125.798 159.912 126.143 159.173C126.255 158.933 126.352 158.78 126.437 158.714C126.544 158.711 126.603 158.698 126.613 158.677C126.611 158.623 126.6 158.591 126.578 158.581C126.501 158.519 126.529 158.346 126.66 158.063C126.894 157.563 127.265 157.021 127.776 156.438C127.828 156.383 127.911 156.29 128.026 156.158C128.15 156.004 128.25 155.905 128.323 155.86C128.397 155.815 128.456 155.802 128.5 155.823C128.532 155.811 128.612 155.809 128.741 155.816C128.858 155.791 129.008 155.755 129.189 155.707C129.433 155.582 129.609 155.545 129.717 155.596C129.87 155.667 129.86 155.887 129.687 156.257C129.565 156.518 129.308 156.928 128.915 157.486C128.652 158.052 128.466 158.535 128.359 158.935C128.372 159.02 128.309 159.242 128.168 159.6C128.016 159.927 127.899 160.177 127.818 160.351C127.746 160.449 127.664 160.597 127.572 160.792C127.339 161.293 127.162 162.071 127.04 163.126C127.013 163.696 126.887 164.591 126.663 165.81C126.438 167.029 126.248 167.722 126.091 167.887ZM134.847 149.281C134.735 149.52 134.395 149.852 133.827 150.275C133.259 150.699 132.757 151.008 132.322 151.202C131.451 151.537 130.483 151.682 129.419 151.636C128.343 151.558 127.338 151.301 126.402 150.865C126.207 150.773 125.901 150.605 125.487 150.358C124.228 149.48 123.107 148.335 122.123 146.923C121.128 145.479 120.422 144.011 120.006 142.52C119.769 141.721 119.627 141.032 119.579 140.454C119.519 139.843 119.561 139.187 119.702 138.485C119.757 138.14 119.937 137.641 120.241 136.989C120.434 136.576 120.719 136.192 121.096 135.838C121.483 135.463 121.878 135.183 122.281 135C122.662 134.808 122.961 134.762 123.179 134.863C123.375 134.954 123.484 135.032 123.507 135.096C123.541 135.138 123.489 135.22 123.353 135.342L123.201 135.668L124.299 135.783C124.536 135.787 124.81 135.823 125.124 135.889C125.437 135.956 125.713 136.045 125.952 136.156C126.344 136.339 127.049 136.814 128.069 137.58C129.067 138.337 129.721 138.893 130.031 139.25C130.164 139.418 130.373 139.568 130.655 139.7L132.069 141.352C132.094 141.47 132.14 141.571 132.207 141.655C132.273 141.739 132.354 141.763 132.45 141.729C132.537 141.769 132.731 142.005 133.033 142.437C133.323 142.838 133.453 143.07 133.423 143.135C133.413 143.157 133.408 143.195 133.41 143.249C133.389 143.292 133.412 143.329 133.477 143.359C133.564 143.4 133.722 143.659 133.949 144.136C134.187 144.591 134.405 145.09 134.602 145.632C134.798 146.12 134.929 146.777 134.994 147.602C135.048 148.395 134.999 148.955 134.847 149.281ZM132.746 148.421C132.989 147.898 133.03 147.414 132.867 146.968C132.777 146.423 132.555 145.763 132.201 144.989C131.835 144.183 131.436 143.533 131.004 143.04C130.801 142.681 130.567 142.36 130.301 142.077C130.046 141.773 129.516 141.234 128.711 140.462C128.565 140.208 128.343 139.973 128.048 139.755C127.74 139.506 127.445 139.315 127.162 139.183C126.205 138.737 125.556 138.368 125.216 138.077C124.606 137.793 124.221 137.626 124.058 137.577C123.874 137.518 123.66 137.524 123.415 137.595C123.107 137.743 122.888 137.958 122.756 138.241C122.685 138.393 122.64 138.716 122.621 139.211C122.581 139.695 122.574 140.05 122.602 140.274C122.585 140.425 122.561 140.533 122.53 140.598C122.469 140.729 122.392 140.838 122.298 140.927C122.192 140.983 122.095 140.991 122.008 140.951C121.856 140.88 121.75 140.91 121.689 141.04C121.608 141.214 121.627 141.514 121.746 141.941C121.865 142.367 122.05 142.85 122.301 143.391C122.486 143.901 122.726 144.41 123.019 144.918C123.3 145.393 123.484 145.651 123.571 145.692C123.637 145.722 123.736 145.821 123.869 145.989C124.013 146.136 124.129 146.256 124.218 146.35C124.386 146.614 124.714 147.019 125.201 147.564C125.666 148.099 126.015 148.459 126.245 148.646L128.007 149.468C128.551 149.722 128.99 149.887 129.325 149.963C129.66 150.04 130.031 150.068 130.439 150.046C130.631 150.03 130.882 149.975 131.191 149.88C131.5 149.786 131.697 149.732 131.783 149.719C132.006 149.638 132.17 149.569 132.276 149.512C132.37 149.424 132.453 149.304 132.524 149.151C132.605 148.977 132.679 148.734 132.746 148.421ZM141.696 134.593C141.585 134.832 141.245 135.163 140.677 135.587C140.108 136.01 139.607 136.319 139.172 136.514C138.301 136.849 137.333 136.993 136.269 136.947C135.193 136.869 134.187 136.612 133.252 136.176C133.056 136.085 132.751 135.916 132.336 135.67C131.077 134.791 129.956 133.646 128.973 132.234C127.978 130.791 127.272 129.323 126.855 127.831C126.619 127.032 126.476 126.344 126.428 125.765C126.369 125.155 126.41 124.499 126.552 123.797C126.607 123.452 126.786 122.953 127.091 122.3C127.283 121.887 127.568 121.503 127.945 121.15C128.332 120.774 128.727 120.495 129.13 120.312C129.511 120.119 129.811 120.073 130.028 120.175C130.224 120.266 130.334 120.343 130.357 120.407C130.39 120.449 130.339 120.531 130.202 120.653L130.05 120.979L131.149 121.094C131.385 121.099 131.66 121.134 131.973 121.201C132.286 121.267 132.562 121.356 132.802 121.468C133.193 121.65 133.899 122.125 134.918 122.892C135.916 123.648 136.57 124.205 136.88 124.561C137.014 124.73 137.222 124.88 137.505 125.011L138.919 126.664C138.943 126.781 138.989 126.882 139.056 126.966C139.123 127.05 139.204 127.075 139.3 127.04C139.387 127.081 139.581 127.317 139.883 127.749C140.173 128.149 140.302 128.382 140.272 128.447C140.262 128.469 140.258 128.506 140.259 128.56C140.239 128.603 140.261 128.64 140.327 128.671C140.414 128.711 140.571 128.97 140.799 129.447C141.037 129.902 141.254 130.401 141.452 130.943C141.647 131.432 141.778 132.089 141.844 132.914C141.897 133.707 141.848 134.266 141.696 134.593ZM139.595 133.732C139.839 133.21 139.879 132.726 139.716 132.279C139.626 131.734 139.404 131.074 139.05 130.3C138.685 129.494 138.286 128.845 137.854 128.352C137.651 127.992 137.416 127.671 137.151 127.389C136.896 127.084 136.365 126.546 135.561 125.773C135.414 125.52 135.193 125.284 134.897 125.067C134.59 124.817 134.294 124.627 134.012 124.495C133.055 124.049 132.406 123.68 132.065 123.388C131.456 123.104 131.07 122.938 130.908 122.889C130.724 122.829 130.509 122.835 130.264 122.906C129.957 123.054 129.737 123.27 129.605 123.552C129.534 123.705 129.489 124.028 129.471 124.522C129.43 125.007 129.424 125.361 129.451 125.586C129.434 125.737 129.41 125.845 129.38 125.91C129.319 126.04 129.241 126.15 129.147 126.238C129.041 126.295 128.945 126.303 128.858 126.262C128.706 126.191 128.599 126.221 128.538 126.352C128.457 126.526 128.476 126.826 128.595 127.252C128.714 127.678 128.899 128.162 129.15 128.702C129.336 129.213 129.575 129.722 129.868 130.229C130.15 130.704 130.334 130.962 130.421 131.003C130.486 131.033 130.585 131.133 130.719 131.301C130.862 131.447 130.978 131.568 131.067 131.662C131.235 131.926 131.563 132.33 132.05 132.875C132.516 133.41 132.864 133.771 133.095 133.958L134.856 134.779C135.4 135.033 135.84 135.198 136.175 135.275C136.509 135.352 136.881 135.379 137.288 135.357C137.481 135.341 137.732 135.286 138.04 135.192C138.349 135.097 138.546 135.044 138.632 135.031C138.855 134.949 139.02 134.88 139.126 134.824C139.22 134.735 139.302 134.615 139.373 134.463C139.455 134.289 139.528 134.045 139.595 133.732ZM149.565 118.91C149.32 118.981 149.067 118.956 148.806 118.834C148.567 118.722 148.069 118.371 147.312 117.78C146.611 117.294 145.899 116.75 145.174 116.147L144.236 115.432C143.959 115.117 143.678 114.84 143.392 114.601C143.095 114.33 142.907 114.163 142.831 114.101C142.79 114.188 142.726 114.383 142.637 114.686C142.559 114.967 142.509 115.302 142.487 115.689C142.318 116.563 142.117 117.25 141.883 117.751C141.66 118.229 141.386 118.591 141.059 118.836C140.743 119.06 140.334 119.2 139.831 119.256C139.671 119.314 139.441 119.326 139.139 119.291C138.848 119.235 138.572 119.146 138.311 119.024C138.006 118.882 137.836 118.736 137.799 118.587C137.611 118.367 137.439 118.167 137.284 117.989C137.139 117.789 137.005 117.621 136.883 117.485C136.516 117.022 136.3 116.776 136.235 116.745C136.192 116.725 136.136 116.673 136.07 116.589C135.991 116.473 135.92 116.4 135.854 116.369C135.532 115.981 134.865 114.941 133.853 113.251C132.828 111.529 132.229 110.429 132.055 109.95C132.059 109.714 132.08 109.499 132.118 109.304C132.166 109.088 132.238 108.963 132.333 108.928C132.57 108.932 132.882 108.972 133.271 109.047C133.659 109.123 133.838 109.193 133.808 109.258C133.798 109.28 133.793 109.318 133.795 109.371C133.796 109.425 133.83 109.467 133.895 109.497C134.026 109.558 134.342 110.129 134.844 111.211C135.974 113.274 137.035 114.973 138.027 116.31C138.722 116.978 139.178 117.363 139.395 117.464C139.504 117.515 139.606 117.523 139.702 117.488C139.806 117.378 139.904 117.225 139.995 117.029C140.239 116.507 140.438 115.739 140.593 114.726C140.862 113.58 140.998 112.863 141.001 112.573C141.082 112.399 141.121 112.231 141.116 112.07C141.122 111.888 141.081 111.776 140.994 111.735C140.929 111.705 140.769 111.538 140.514 111.233C140.247 110.897 140.047 110.671 139.915 110.557L139.165 109.611C138.454 108.75 137.998 108.167 137.796 107.861C137.13 107.074 136.654 106.534 136.367 106.241C136.068 105.916 135.852 105.67 135.719 105.502C135.573 105.302 135.511 105.18 135.531 105.136C135.582 105.028 135.686 104.917 135.844 104.806C136.002 104.694 136.173 104.641 136.355 104.647C136.483 104.6 136.6 104.576 136.708 104.573C136.825 104.548 136.938 104.561 137.047 104.612C137.156 104.662 137.31 104.814 137.51 105.066C137.741 105.253 137.945 105.441 138.122 105.629C138.299 105.818 138.493 106.054 138.705 106.338L139.473 107.332C140.318 108.415 141.406 109.716 142.736 111.237C144.055 112.725 145.039 113.767 145.688 114.361C146.361 115.019 146.94 115.567 147.424 116.005C147.909 116.443 148.282 116.722 148.543 116.844C148.738 116.935 148.97 116.977 149.239 116.97C149.64 117.131 149.932 117.386 150.113 117.735C150.294 118.085 150.329 118.379 150.218 118.618C150.096 118.879 149.879 118.976 149.565 118.91Z" fill="black"/>
</svg>
