<svg width="80" height="350" viewBox="0 0 80 350" fill="none" xmlns="http://www.w3.org/2000/svg">
<rect x="2.5" y="2.5" width="75" height="345" rx="2.5" fill="#F9E5CC" stroke="black" stroke-width="5"/>
<rect x="2.5" y="42.5" width="75" height="255" rx="2.5" fill="#97466F" stroke="black" stroke-width="5"/>
<path d="M51.172 242.276C51.1 242.444 50.932 242.684 50.668 242.996C50.404 243.308 50.164 243.512 49.948 243.608C49.924 243.632 49.852 243.644 49.732 243.644C49.564 243.644 49.372 243.608 49.156 243.536C48.94 243.464 48.832 243.392 48.832 243.32C48.904 243.248 48.724 243.056 48.292 242.744C47.836 242.408 47.548 242.228 47.428 242.204C47.332 242.18 47.248 242.108 47.176 241.988C47.08 241.844 47.02 241.748 46.996 241.7C46.804 241.58 46.6 241.412 46.384 241.196C46.144 240.956 45.976 240.8 45.88 240.728C45.76 240.632 45.568 240.452 45.304 240.188C45.016 239.924 44.764 239.684 44.548 239.468C44.02 238.892 43.612 238.472 43.324 238.208C41.98 236.96 41.2 236.312 40.984 236.264C40.96 236.24 40.912 236.192 40.84 236.12C40.768 236.048 40.696 235.952 40.624 235.832C40.384 235.472 40.108 235.136 39.796 234.824C39.628 234.8 39.364 234.668 39.004 234.428C38.644 234.188 38.344 233.948 38.104 233.708C37.84 233.516 37.552 233.348 37.24 233.204C36.904 233.036 36.616 232.916 36.376 232.844L36.052 232.772C35.956 232.772 35.884 232.832 35.836 232.952C35.764 233.072 35.704 233.216 35.656 233.384C35.608 233.528 35.572 233.648 35.548 233.744C35.38 234.296 35.296 234.776 35.296 235.184C35.296 236.072 35.62 236.984 36.268 237.92C36.34 238.256 36.424 238.52 36.52 238.712C36.664 239.144 36.724 239.42 36.7 239.54C36.676 239.612 36.568 239.72 36.376 239.864C36.184 240.008 36.028 240.14 35.908 240.26L35.152 240.62L34.54 239.504C33.556 238.016 33.064 236.72 33.064 235.616C33.064 235.232 33.112 234.896 33.208 234.608C33.208 234.392 33.232 234.176 33.28 233.96C33.328 233.744 33.364 233.612 33.388 233.564C33.364 233.276 33.592 232.904 34.072 232.448C34.552 231.968 35.044 231.608 35.548 231.368C35.98 231.08 36.424 230.936 36.88 230.936C37.6 230.936 38.524 231.32 39.652 232.088C40.276 232.616 41.176 233.42 42.352 234.5C43.528 235.58 44.212 236.24 44.404 236.48C44.548 236.768 45.244 237.464 46.492 238.568C47.74 239.672 48.364 240.176 48.364 240.08L48.436 240.08C48.292 240.08 48.112 239.336 47.896 237.848C47.656 236.336 47.536 235.172 47.536 234.356C47.536 234.092 47.56 233.912 47.608 233.816C47.704 233.768 47.752 233.732 47.752 233.708C47.728 233.66 47.704 233.636 47.68 233.636C47.584 233.612 47.536 233.444 47.536 233.132C47.536 232.58 47.644 231.932 47.86 231.188C47.884 231.116 47.92 230.996 47.968 230.828C48.016 230.636 48.064 230.504 48.112 230.432C48.16 230.36 48.208 230.324 48.256 230.324C48.28 230.3 48.352 230.264 48.472 230.216C48.568 230.144 48.688 230.048 48.832 229.928C49 229.712 49.144 229.604 49.264 229.604C49.432 229.604 49.516 229.808 49.516 230.216C49.516 230.504 49.456 230.984 49.336 231.656C49.336 232.28 49.372 232.796 49.444 233.204C49.492 233.276 49.528 233.504 49.552 233.888C49.552 234.248 49.552 234.524 49.552 234.716C49.528 234.836 49.516 235.004 49.516 235.22C49.516 235.772 49.684 236.552 50.02 237.56C50.236 238.088 50.5 238.952 50.812 240.152C51.124 241.352 51.244 242.06 51.172 242.276ZM51.244 221.713C51.244 221.977 51.076 222.421 50.74 223.045C50.404 223.669 50.08 224.161 49.768 224.521C49.12 225.193 48.304 225.733 47.32 226.141C46.312 226.525 45.292 226.717 44.26 226.717C44.044 226.717 43.696 226.693 43.216 226.645C41.704 226.381 40.204 225.817 38.716 224.953C37.204 224.065 35.944 223.033 34.936 221.857C34.384 221.233 33.964 220.669 33.676 220.165C33.364 219.637 33.124 219.025 32.956 218.329C32.86 217.993 32.812 217.465 32.812 216.745C32.812 216.289 32.908 215.821 33.1 215.341C33.292 214.837 33.532 214.417 33.82 214.081C34.084 213.745 34.336 213.577 34.576 213.577C34.792 213.577 34.924 213.601 34.972 213.649C35.02 213.673 35.008 213.769 34.936 213.937L34.936 214.297L35.98 213.937C36.196 213.841 36.46 213.757 36.772 213.685C37.084 213.613 37.372 213.577 37.636 213.577C38.068 213.577 38.908 213.709 40.156 213.973C41.38 214.237 42.208 214.465 42.64 214.657C42.832 214.753 43.084 214.801 43.396 214.801L45.376 215.701C45.448 215.797 45.532 215.869 45.628 215.917C45.724 215.965 45.808 215.953 45.88 215.881C45.976 215.881 46.252 216.013 46.708 216.277C47.14 216.517 47.356 216.673 47.356 216.745C47.356 216.769 47.368 216.805 47.392 216.853C47.392 216.901 47.428 216.925 47.5 216.925C47.596 216.925 47.848 217.093 48.256 217.429C48.664 217.741 49.072 218.101 49.48 218.509C49.864 218.869 50.26 219.409 50.668 220.129C51.052 220.825 51.244 221.353 51.244 221.713ZM48.976 221.821C48.976 221.245 48.808 220.789 48.472 220.453C48.16 219.997 47.68 219.493 47.032 218.941C46.36 218.365 45.724 217.945 45.124 217.681C44.788 217.441 44.44 217.249 44.08 217.105C43.72 216.937 43.012 216.673 41.956 216.313C41.716 216.145 41.416 216.025 41.056 215.953C40.672 215.857 40.324 215.809 40.012 215.809C38.956 215.809 38.212 215.749 37.78 215.629C37.108 215.629 36.688 215.641 36.52 215.665C36.328 215.689 36.136 215.785 35.944 215.953C35.728 216.217 35.62 216.505 35.62 216.817C35.62 216.985 35.716 217.297 35.908 217.753C36.076 218.209 36.22 218.533 36.34 218.725C36.388 218.869 36.412 218.977 36.412 219.049C36.412 219.193 36.388 219.325 36.34 219.445C36.268 219.541 36.184 219.589 36.088 219.589C35.92 219.589 35.836 219.661 35.836 219.805C35.836 219.997 35.98 220.261 36.268 220.597C36.556 220.933 36.928 221.293 37.384 221.677C37.768 222.061 38.2 222.421 38.68 222.757C39.136 223.069 39.412 223.225 39.508 223.225C39.58 223.225 39.712 223.273 39.904 223.369C40.096 223.441 40.252 223.501 40.372 223.549C40.636 223.717 41.104 223.945 41.776 224.233C42.424 224.521 42.892 224.701 43.18 224.773L45.124 224.773C45.724 224.773 46.192 224.737 46.528 224.665C46.864 224.593 47.212 224.461 47.572 224.269C47.74 224.173 47.944 224.017 48.184 223.801C48.424 223.585 48.58 223.453 48.652 223.405C48.82 223.237 48.94 223.105 49.012 223.009C49.06 222.889 49.084 222.745 49.084 222.577C49.084 222.385 49.048 222.133 48.976 221.821ZM51.244 205.506C51.244 205.77 51.076 206.214 50.74 206.838C50.404 207.462 50.08 207.954 49.768 208.314C49.12 208.986 48.304 209.526 47.32 209.934C46.312 210.318 45.292 210.51 44.26 210.51C44.044 210.51 43.696 210.486 43.216 210.438C41.704 210.174 40.204 209.61 38.716 208.746C37.204 207.858 35.944 206.826 34.936 205.65C34.384 205.026 33.964 204.462 33.676 203.958C33.364 203.43 33.124 202.818 32.956 202.122C32.86 201.786 32.812 201.258 32.812 200.538C32.812 200.082 32.908 199.614 33.1 199.134C33.292 198.63 33.532 198.21 33.82 197.874C34.084 197.538 34.336 197.37 34.576 197.37C34.792 197.37 34.924 197.394 34.972 197.442C35.02 197.466 35.008 197.562 34.936 197.73L34.936 198.09L35.98 197.73C36.196 197.634 36.46 197.55 36.772 197.478C37.084 197.406 37.372 197.37 37.636 197.37C38.068 197.37 38.908 197.502 40.156 197.766C41.38 198.03 42.208 198.258 42.64 198.45C42.832 198.546 43.084 198.594 43.396 198.594L45.376 199.494C45.448 199.59 45.532 199.662 45.628 199.71C45.724 199.758 45.808 199.746 45.88 199.674C45.976 199.674 46.252 199.806 46.708 200.07C47.14 200.31 47.356 200.466 47.356 200.538C47.356 200.562 47.368 200.598 47.392 200.646C47.392 200.694 47.428 200.718 47.5 200.718C47.596 200.718 47.848 200.886 48.256 201.222C48.664 201.534 49.072 201.894 49.48 202.302C49.864 202.662 50.26 203.202 50.668 203.922C51.052 204.618 51.244 205.146 51.244 205.506ZM48.976 205.614C48.976 205.038 48.808 204.582 48.472 204.246C48.16 203.79 47.68 203.286 47.032 202.734C46.36 202.158 45.724 201.738 45.124 201.474C44.788 201.234 44.44 201.042 44.08 200.898C43.72 200.73 43.012 200.466 41.956 200.106C41.716 199.938 41.416 199.818 41.056 199.746C40.672 199.65 40.324 199.602 40.012 199.602C38.956 199.602 38.212 199.542 37.78 199.422C37.108 199.422 36.688 199.434 36.52 199.458C36.328 199.482 36.136 199.578 35.944 199.746C35.728 200.01 35.62 200.298 35.62 200.61C35.62 200.778 35.716 201.09 35.908 201.546C36.076 202.002 36.22 202.326 36.34 202.518C36.388 202.662 36.412 202.77 36.412 202.842C36.412 202.986 36.388 203.118 36.34 203.238C36.268 203.334 36.184 203.382 36.088 203.382C35.92 203.382 35.836 203.454 35.836 203.598C35.836 203.79 35.98 204.054 36.268 204.39C36.556 204.726 36.928 205.086 37.384 205.47C37.768 205.854 38.2 206.214 38.68 206.55C39.136 206.862 39.412 207.018 39.508 207.018C39.58 207.018 39.712 207.066 39.904 207.162C40.096 207.234 40.252 207.294 40.372 207.342C40.636 207.51 41.104 207.738 41.776 208.026C42.424 208.314 42.892 208.494 43.18 208.566L45.124 208.566C45.724 208.566 46.192 208.53 46.528 208.458C46.864 208.386 47.212 208.254 47.572 208.062C47.74 207.966 47.944 207.81 48.184 207.594C48.424 207.378 48.58 207.246 48.652 207.198C48.82 207.03 48.94 206.898 49.012 206.802C49.06 206.682 49.084 206.538 49.084 206.37C49.084 206.178 49.048 205.926 48.976 205.614ZM52.648 191.423C52.552 191.951 52.096 192.383 51.28 192.719C50.488 192.887 48.352 192.047 44.872 190.199C44.032 189.671 43.528 189.407 43.36 189.407C43.264 189.407 43.204 189.479 43.18 189.623C43.156 189.743 43.144 189.911 43.144 190.127C43.12 190.247 43.072 190.475 43 190.811C42.928 191.147 42.844 191.351 42.748 191.423C42.508 191.879 42.256 192.107 41.992 192.107C41.848 192.107 41.764 192.023 41.74 191.855C41.692 191.615 41.62 191.495 41.524 191.495C41.452 191.495 41.368 191.639 41.272 191.927L41.344 191.531L41.38 189.731C41.38 189.299 41.392 188.987 41.416 188.795C41.44 188.723 41.452 188.627 41.452 188.507C41.452 188.339 41.416 188.207 41.344 188.111C41.248 188.015 41.116 187.895 40.948 187.751C40.756 187.607 40.612 187.499 40.516 187.427L39.436 186.743C38.764 186.263 38.092 185.831 37.42 185.447C35.572 184.151 34.396 183.503 33.892 183.503C33.556 183.503 33.388 183.743 33.388 184.223C33.388 184.607 33.46 185.039 33.604 185.519C33.724 185.975 33.976 186.707 34.36 187.715C34.576 188.243 34.756 188.711 34.9 189.119C35.044 189.503 35.116 189.791 35.116 189.983C35.116 190.199 35.068 190.367 34.972 190.487C34.948 190.655 34.852 190.787 34.684 190.883C34.516 190.955 34.324 190.991 34.108 190.991C33.94 190.991 33.82 190.979 33.748 190.955C33.316 190.859 32.716 189.287 31.948 186.239C31.828 185.471 31.768 184.811 31.768 184.259C31.768 183.347 31.924 182.807 32.236 182.639C32.26 182.615 32.296 182.579 32.344 182.531C32.368 182.483 32.344 182.447 32.272 182.423C32.296 182.351 32.404 182.279 32.596 182.207C32.764 182.111 32.944 182.015 33.136 181.919C33.232 181.871 33.412 181.775 33.676 181.631C33.94 181.487 34.168 181.415 34.36 181.415C34.456 181.415 34.624 181.439 34.864 181.487C35.104 181.559 35.356 181.679 35.62 181.847C35.884 182.015 36.064 182.147 36.16 182.243C36.256 182.339 36.364 182.423 36.484 182.495C36.58 182.543 36.64 182.579 36.664 182.603C36.736 182.627 36.832 182.711 36.952 182.855C37.048 182.975 37.156 183.083 37.276 183.179C37.348 183.203 37.456 183.263 37.6 183.359C37.72 183.431 37.816 183.479 37.888 183.503L40.876 185.483C41.188 185.819 41.416 185.987 41.56 185.987C41.704 185.987 41.848 185.831 41.992 185.519C42.376 184.679 42.856 184.163 43.432 183.971L43.756 183.971C44.02 183.971 44.188 184.031 44.26 184.151C44.404 184.247 44.476 184.415 44.476 184.655C44.476 184.943 44.416 185.123 44.296 185.195C44.104 185.291 43.924 185.567 43.756 186.023C43.564 186.455 43.468 186.743 43.468 186.887C43.54 187.007 43.768 187.211 44.152 187.499C44.416 187.691 45.148 188.087 46.348 188.687L48.04 189.623C48.112 189.647 48.232 189.719 48.4 189.839C48.568 189.935 48.712 190.007 48.832 190.055C49 190.151 49.252 190.235 49.588 190.307C49.924 190.379 50.224 190.415 50.488 190.415C50.728 190.415 50.848 190.379 50.848 190.307C50.824 190.259 50.812 190.199 50.812 190.127C50.812 189.911 50.98 189.767 51.316 189.695C51.484 189.575 51.688 189.611 51.928 189.803C52.168 189.995 52.36 190.247 52.504 190.559C52.648 190.871 52.696 191.159 52.648 191.423ZM45.592 176.764C45.592 177.244 45.532 177.664 45.412 178.024C45.412 178.36 45.376 178.6 45.304 178.744C45.232 178.864 45.1 178.972 44.908 179.068C44.692 179.212 44.524 179.284 44.404 179.284C44.26 179.284 44.152 179.152 44.08 178.888C43.984 178.624 43.9 178.156 43.828 177.484C43.66 176.764 43.54 175.408 43.468 173.416C43.372 171.424 43.324 169.756 43.324 168.412C43.324 167.788 43.36 167.368 43.432 167.152C43.48 166.936 43.624 166.696 43.864 166.432C44.152 166.144 44.428 166 44.692 166C44.908 166 45.064 166.096 45.16 166.288C45.256 166.456 45.28 166.696 45.232 167.008L45.412 169.276C45.436 170.068 45.472 171.244 45.52 172.804C45.568 174.34 45.592 175.66 45.592 176.764ZM51.172 161.381C51.1 161.549 50.932 161.789 50.668 162.101C50.404 162.413 50.164 162.617 49.948 162.713C49.924 162.737 49.852 162.749 49.732 162.749C49.564 162.749 49.372 162.713 49.156 162.641C48.94 162.569 48.832 162.497 48.832 162.425C48.904 162.353 48.724 162.161 48.292 161.849C47.836 161.513 47.548 161.333 47.428 161.309C47.332 161.285 47.248 161.213 47.176 161.093C47.08 160.949 47.02 160.853 46.996 160.805C46.804 160.685 46.6 160.517 46.384 160.301C46.144 160.061 45.976 159.905 45.88 159.833C45.76 159.737 45.568 159.557 45.304 159.293C45.016 159.029 44.764 158.789 44.548 158.573C44.02 157.997 43.612 157.577 43.324 157.313C41.98 156.065 41.2 155.417 40.984 155.369C40.96 155.345 40.912 155.297 40.84 155.225C40.768 155.153 40.696 155.057 40.624 154.937C40.384 154.577 40.108 154.241 39.796 153.929C39.628 153.905 39.364 153.773 39.004 153.533C38.644 153.293 38.344 153.053 38.104 152.813C37.84 152.621 37.552 152.453 37.24 152.309C36.904 152.141 36.616 152.021 36.376 151.949L36.052 151.877C35.956 151.877 35.884 151.937 35.836 152.057C35.764 152.177 35.704 152.321 35.656 152.489C35.608 152.633 35.572 152.753 35.548 152.849C35.38 153.401 35.296 153.881 35.296 154.289C35.296 155.177 35.62 156.089 36.268 157.025C36.34 157.361 36.424 157.625 36.52 157.817C36.664 158.249 36.724 158.525 36.7 158.645C36.676 158.717 36.568 158.825 36.376 158.969C36.184 159.113 36.028 159.245 35.908 159.365L35.152 159.725L34.54 158.609C33.556 157.121 33.064 155.825 33.064 154.721C33.064 154.337 33.112 154.001 33.208 153.713C33.208 153.497 33.232 153.281 33.28 153.065C33.328 152.849 33.364 152.717 33.388 152.669C33.364 152.381 33.592 152.009 34.072 151.553C34.552 151.073 35.044 150.713 35.548 150.473C35.98 150.185 36.424 150.041 36.88 150.041C37.6 150.041 38.524 150.425 39.652 151.193C40.276 151.721 41.176 152.525 42.352 153.605C43.528 154.685 44.212 155.345 44.404 155.585C44.548 155.873 45.244 156.569 46.492 157.673C47.74 158.777 48.364 159.281 48.364 159.185L48.436 159.185C48.292 159.185 48.112 158.441 47.896 156.953C47.656 155.441 47.536 154.277 47.536 153.461C47.536 153.197 47.56 153.017 47.608 152.921C47.704 152.873 47.752 152.837 47.752 152.813C47.728 152.765 47.704 152.741 47.68 152.741C47.584 152.717 47.536 152.549 47.536 152.237C47.536 151.685 47.644 151.037 47.86 150.293C47.884 150.221 47.92 150.101 47.968 149.933C48.016 149.741 48.064 149.609 48.112 149.537C48.16 149.465 48.208 149.429 48.256 149.429C48.28 149.405 48.352 149.369 48.472 149.321C48.568 149.249 48.688 149.153 48.832 149.033C49 148.817 49.144 148.709 49.264 148.709C49.432 148.709 49.516 148.913 49.516 149.321C49.516 149.609 49.456 150.089 49.336 150.761C49.336 151.385 49.372 151.901 49.444 152.309C49.492 152.381 49.528 152.609 49.552 152.993C49.552 153.353 49.552 153.629 49.552 153.821C49.528 153.941 49.516 154.109 49.516 154.325C49.516 154.877 49.684 155.657 50.02 156.665C50.236 157.193 50.5 158.057 50.812 159.257C51.124 160.457 51.244 161.165 51.172 161.381ZM51.244 140.818C51.244 141.082 51.076 141.526 50.74 142.15C50.404 142.774 50.08 143.266 49.768 143.626C49.12 144.298 48.304 144.838 47.32 145.246C46.312 145.63 45.292 145.822 44.26 145.822C44.044 145.822 43.696 145.798 43.216 145.75C41.704 145.486 40.204 144.922 38.716 144.058C37.204 143.17 35.944 142.138 34.936 140.962C34.384 140.338 33.964 139.774 33.676 139.27C33.364 138.742 33.124 138.13 32.956 137.434C32.86 137.098 32.812 136.57 32.812 135.85C32.812 135.394 32.908 134.926 33.1 134.446C33.292 133.942 33.532 133.522 33.82 133.186C34.084 132.85 34.336 132.682 34.576 132.682C34.792 132.682 34.924 132.706 34.972 132.754C35.02 132.778 35.008 132.874 34.936 133.042L34.936 133.402L35.98 133.042C36.196 132.946 36.46 132.862 36.772 132.79C37.084 132.718 37.372 132.682 37.636 132.682C38.068 132.682 38.908 132.814 40.156 133.078C41.38 133.342 42.208 133.57 42.64 133.762C42.832 133.858 43.084 133.906 43.396 133.906L45.376 134.806C45.448 134.902 45.532 134.974 45.628 135.022C45.724 135.07 45.808 135.058 45.88 134.986C45.976 134.986 46.252 135.118 46.708 135.382C47.14 135.622 47.356 135.778 47.356 135.85C47.356 135.874 47.368 135.91 47.392 135.958C47.392 136.006 47.428 136.03 47.5 136.03C47.596 136.03 47.848 136.198 48.256 136.534C48.664 136.846 49.072 137.206 49.48 137.614C49.864 137.974 50.26 138.514 50.668 139.234C51.052 139.93 51.244 140.458 51.244 140.818ZM48.976 140.926C48.976 140.35 48.808 139.894 48.472 139.558C48.16 139.102 47.68 138.598 47.032 138.046C46.36 137.47 45.724 137.05 45.124 136.786C44.788 136.546 44.44 136.354 44.08 136.21C43.72 136.042 43.012 135.778 41.956 135.418C41.716 135.25 41.416 135.13 41.056 135.058C40.672 134.962 40.324 134.914 40.012 134.914C38.956 134.914 38.212 134.854 37.78 134.734C37.108 134.734 36.688 134.746 36.52 134.77C36.328 134.794 36.136 134.89 35.944 135.058C35.728 135.322 35.62 135.61 35.62 135.922C35.62 136.09 35.716 136.402 35.908 136.858C36.076 137.314 36.22 137.638 36.34 137.83C36.388 137.974 36.412 138.082 36.412 138.154C36.412 138.298 36.388 138.43 36.34 138.55C36.268 138.646 36.184 138.694 36.088 138.694C35.92 138.694 35.836 138.766 35.836 138.91C35.836 139.102 35.98 139.366 36.268 139.702C36.556 140.038 36.928 140.398 37.384 140.782C37.768 141.166 38.2 141.526 38.68 141.862C39.136 142.174 39.412 142.33 39.508 142.33C39.58 142.33 39.712 142.378 39.904 142.474C40.096 142.546 40.252 142.606 40.372 142.654C40.636 142.822 41.104 143.05 41.776 143.338C42.424 143.626 42.892 143.806 43.18 143.878L45.124 143.878C45.724 143.878 46.192 143.842 46.528 143.77C46.864 143.698 47.212 143.566 47.572 143.374C47.74 143.278 47.944 143.122 48.184 142.906C48.424 142.69 48.58 142.558 48.652 142.51C48.82 142.342 48.94 142.21 49.012 142.114C49.06 141.994 49.084 141.85 49.084 141.682C49.084 141.49 49.048 141.238 48.976 140.926ZM51.244 124.611C51.244 124.875 51.076 125.319 50.74 125.943C50.404 126.567 50.08 127.059 49.768 127.419C49.12 128.091 48.304 128.631 47.32 129.039C46.312 129.423 45.292 129.615 44.26 129.615C44.044 129.615 43.696 129.591 43.216 129.543C41.704 129.279 40.204 128.715 38.716 127.851C37.204 126.963 35.944 125.931 34.936 124.755C34.384 124.131 33.964 123.567 33.676 123.063C33.364 122.535 33.124 121.923 32.956 121.227C32.86 120.891 32.812 120.363 32.812 119.643C32.812 119.187 32.908 118.719 33.1 118.239C33.292 117.735 33.532 117.315 33.82 116.979C34.084 116.643 34.336 116.475 34.576 116.475C34.792 116.475 34.924 116.499 34.972 116.547C35.02 116.571 35.008 116.667 34.936 116.835L34.936 117.195L35.98 116.835C36.196 116.739 36.46 116.655 36.772 116.583C37.084 116.511 37.372 116.475 37.636 116.475C38.068 116.475 38.908 116.607 40.156 116.871C41.38 117.135 42.208 117.363 42.64 117.555C42.832 117.651 43.084 117.699 43.396 117.699L45.376 118.599C45.448 118.695 45.532 118.767 45.628 118.815C45.724 118.863 45.808 118.851 45.88 118.779C45.976 118.779 46.252 118.911 46.708 119.175C47.14 119.415 47.356 119.571 47.356 119.643C47.356 119.667 47.368 119.703 47.392 119.751C47.392 119.799 47.428 119.823 47.5 119.823C47.596 119.823 47.848 119.991 48.256 120.327C48.664 120.639 49.072 120.999 49.48 121.407C49.864 121.767 50.26 122.307 50.668 123.027C51.052 123.723 51.244 124.251 51.244 124.611ZM48.976 124.719C48.976 124.143 48.808 123.687 48.472 123.351C48.16 122.895 47.68 122.391 47.032 121.839C46.36 121.263 45.724 120.843 45.124 120.579C44.788 120.339 44.44 120.147 44.08 120.003C43.72 119.835 43.012 119.571 41.956 119.211C41.716 119.043 41.416 118.923 41.056 118.851C40.672 118.755 40.324 118.707 40.012 118.707C38.956 118.707 38.212 118.647 37.78 118.527C37.108 118.527 36.688 118.539 36.52 118.563C36.328 118.587 36.136 118.683 35.944 118.851C35.728 119.115 35.62 119.403 35.62 119.715C35.62 119.883 35.716 120.195 35.908 120.651C36.076 121.107 36.22 121.431 36.34 121.623C36.388 121.767 36.412 121.875 36.412 121.947C36.412 122.091 36.388 122.223 36.34 122.343C36.268 122.439 36.184 122.487 36.088 122.487C35.92 122.487 35.836 122.559 35.836 122.703C35.836 122.895 35.98 123.159 36.268 123.495C36.556 123.831 36.928 124.191 37.384 124.575C37.768 124.959 38.2 125.319 38.68 125.655C39.136 125.967 39.412 126.123 39.508 126.123C39.58 126.123 39.712 126.171 39.904 126.267C40.096 126.339 40.252 126.399 40.372 126.447C40.636 126.615 41.104 126.843 41.776 127.131C42.424 127.419 42.892 127.599 43.18 127.671L45.124 127.671C45.724 127.671 46.192 127.635 46.528 127.563C46.864 127.491 47.212 127.359 47.572 127.167C47.74 127.071 47.944 126.915 48.184 126.699C48.424 126.483 48.58 126.351 48.652 126.303C48.82 126.135 48.94 126.003 49.012 125.907C49.06 125.787 49.084 125.643 49.084 125.475C49.084 125.283 49.048 125.031 48.976 124.719ZM53.152 112.148C53.128 112.364 53.032 112.58 52.864 112.796C52.72 113.012 52.504 113.276 52.216 113.588C52.12 113.636 51.94 113.72 51.676 113.84C51.412 113.96 51.136 114.02 50.848 114.02C50.752 114.02 50.536 113.996 50.2 113.948C49.36 113.948 48.712 113.804 48.256 113.516C47.44 113.228 46.348 112.628 44.98 111.716C43.612 110.804 42.508 110.012 41.668 109.34C41.356 109.076 41.104 108.944 40.912 108.944C40.768 108.944 40.576 109.016 40.336 109.16C40.096 109.304 39.82 109.484 39.508 109.7C39.316 109.772 39.136 109.868 38.968 109.988C38.8 110.084 38.716 110.108 38.716 110.06C38.692 110.084 38.644 110.12 38.572 110.168C38.5 110.216 38.38 110.276 38.212 110.348C37.876 110.708 37.36 110.888 36.664 110.888C35.968 110.888 35.284 110.708 34.612 110.348C33.748 109.964 33.1 109.544 32.668 109.088C32.212 108.608 31.936 108.008 31.84 107.288C31.936 106.616 32.092 105.776 32.308 104.768C32.5 103.736 32.716 102.944 32.956 102.392C33.124 101.96 33.448 101.456 33.928 100.88C34.384 100.304 34.708 99.9924 34.9 99.9444C34.948 99.9444 35.032 99.9084 35.152 99.8364C35.248 99.7644 35.344 99.7044 35.44 99.6564C35.752 99.5124 36.148 99.4404 36.628 99.4404C37.324 99.4404 37.876 99.5724 38.284 99.8364C38.956 100.436 39.34 100.856 39.436 101.096C39.484 101.168 39.592 101.3 39.76 101.492C39.928 101.66 40.036 101.84 40.084 102.032C40.492 102.344 40.696 102.56 40.696 102.68C40.624 102.8 40.588 102.908 40.588 103.004C40.564 103.076 40.6 103.112 40.696 103.112C40.792 103.136 40.984 103.46 41.272 104.084C41.536 104.708 41.632 105.092 41.56 105.236L41.56 105.272C41.56 105.392 41.608 105.524 41.704 105.668C41.68 105.788 41.776 105.812 41.992 105.74C42.184 105.644 42.472 105.44 42.856 105.128C44.608 104.192 45.964 103.724 46.924 103.724C47.38 103.724 47.74 103.82 48.004 104.012C49.036 104.468 49.888 104.96 50.56 105.488C51.232 106.016 51.544 106.436 51.496 106.748L51.82 107.252C51.964 107.3 52.072 107.396 52.144 107.54C52.216 107.684 52.24 107.828 52.216 107.972L52.18 108.08C52.18 108.344 52.312 108.68 52.576 109.088C52.792 109.4 52.96 109.784 53.08 110.24C53.2 110.672 53.26 111.08 53.26 111.464C53.26 111.776 53.224 112.004 53.152 112.148ZM39.436 105.992C38.908 105.392 38.644 104.888 38.644 104.48C38.644 104.192 38.752 104 38.968 103.904C39.064 103.856 38.956 103.58 38.644 103.076C38.308 102.548 37.948 102.092 37.564 101.708C37.42 101.612 37.288 101.54 37.168 101.492C37.024 101.444 36.88 101.42 36.736 101.42L36.16 101.492C35.8 101.468 35.524 101.552 35.332 101.744C35.14 101.912 34.9 102.368 34.612 103.112C34.228 104.168 34.036 105.116 34.036 105.956C34.036 107.42 34.72 108.344 36.088 108.728C36.52 108.872 36.916 108.944 37.276 108.944C37.708 108.944 38.104 108.848 38.464 108.656C38.536 108.464 38.644 108.332 38.788 108.26C38.932 108.164 39.028 108.116 39.076 108.116C39.148 108.116 39.22 108.092 39.292 108.044C39.364 107.996 39.4 107.924 39.4 107.828C39.496 107.804 39.592 107.732 39.688 107.612C39.784 107.468 39.832 107.3 39.832 107.108C39.832 106.796 39.7 106.424 39.436 105.992ZM51.316 111.572C51.34 111.26 51.172 110.72 50.812 109.952C50.452 109.184 50.068 108.5 49.66 107.9C49.06 107.18 48.496 106.652 47.968 106.316C47.44 105.956 46.9 105.776 46.348 105.776C45.988 105.776 45.652 105.848 45.34 105.992C44.356 106.472 43.78 106.772 43.612 106.892C43.276 107.108 43.036 107.348 42.892 107.612C42.916 107.66 43 107.768 43.144 107.936C43.288 108.104 43.468 108.236 43.684 108.332C44.212 108.764 44.704 109.1 45.16 109.34L45.952 110.132C46.024 110.132 46.228 110.204 46.564 110.348C46.9 110.492 47.248 110.66 47.608 110.852C48.184 111.188 48.748 111.452 49.3 111.644C49.828 111.812 50.284 111.896 50.668 111.896C51.052 111.896 51.268 111.788 51.316 111.572Z" fill="black"/>
</svg>
