<svg width="221" height="352" viewBox="0 0 221 352" fill="none" xmlns="http://www.w3.org/2000/svg">
<rect x="149.286" y="3.32232" width="75" height="345" rx="2.5" transform="rotate(25 149.286 3.32232)" fill="#F9E5CC" stroke="black" stroke-width="5"/>
<rect x="132.381" y="39.5743" width="75" height="255" rx="2.5" transform="rotate(25 132.381 39.5743)" fill="#97466F" stroke="black" stroke-width="5"/>
<path d="M91.1577 240.78C91.0214 240.902 90.7677 241.048 90.3966 241.22C90.0255 241.391 89.7218 241.474 89.4854 241.47C89.4535 241.482 89.3832 241.462 89.2744 241.411C89.1222 241.34 88.9634 241.227 88.7981 241.07C88.6327 240.914 88.5653 240.803 88.5957 240.737C88.6914 240.703 88.6094 240.452 88.3497 239.987C88.0784 239.49 87.8935 239.205 87.7949 239.133C87.718 239.07 87.6723 238.97 87.6578 238.83C87.6316 238.659 87.6178 238.547 87.6164 238.493C87.4931 238.303 87.3792 238.065 87.2747 237.778C87.1586 237.459 87.0723 237.246 87.0157 237.141C86.9475 237.003 86.8496 236.759 86.7219 236.408C86.5724 236.047 86.4455 235.723 86.341 235.436C86.1059 234.691 85.9136 234.138 85.7642 233.777C85.0735 232.077 84.6405 231.161 84.465 231.026C84.4534 230.994 84.4302 230.93 84.3953 230.834C84.3605 230.739 84.3358 230.621 84.3213 230.482C84.2559 230.054 84.1478 229.633 83.9969 229.219C83.8547 229.126 83.6713 228.895 83.4464 228.525C83.2216 228.155 83.0511 227.811 82.935 227.492C82.7769 227.207 82.5869 226.933 82.365 226.67C82.1315 226.376 81.9212 226.145 81.7341 225.979L81.4709 225.777C81.3839 225.736 81.2932 225.76 81.199 225.848C81.0831 225.927 80.9678 226.032 80.8533 226.164C80.749 226.274 80.6656 226.368 80.6033 226.445C80.2177 226.874 79.9388 227.273 79.7663 227.643C79.391 228.448 79.2993 229.411 79.491 230.534C79.4142 230.868 79.3788 231.143 79.3847 231.358C79.3326 231.81 79.2703 232.086 79.1979 232.184C79.1457 232.239 79.0022 232.292 78.7673 232.341C78.5324 232.39 78.3353 232.444 78.1758 232.502L77.3385 232.509L77.2555 231.239C76.9925 229.474 77.0943 228.092 77.5609 227.091C77.7232 226.743 77.9087 226.459 78.1174 226.239C78.2087 226.043 78.3217 225.857 78.4565 225.682C78.5913 225.506 78.6797 225.402 78.7217 225.369C78.8217 225.097 79.1856 224.857 79.8133 224.646C80.4512 224.414 81.0492 224.296 81.6074 224.291C82.1207 224.213 82.5839 224.27 82.9972 224.463C83.6498 224.767 84.3249 225.505 85.0226 226.678C85.365 227.42 85.8409 228.529 86.4503 230.005C87.0597 231.481 87.4007 232.368 87.4733 232.667C87.4821 232.989 87.8187 233.914 88.4832 235.442C89.1477 236.97 89.5003 237.69 89.5408 237.603L89.6061 237.634C89.4756 237.573 89.6269 236.822 90.06 235.382C90.4814 233.911 90.8646 232.805 91.2095 232.066C91.321 231.826 91.4189 231.673 91.5029 231.607C91.6102 231.604 91.6689 231.591 91.6791 231.57C91.6776 231.516 91.666 231.484 91.6443 231.474C91.5674 231.412 91.5949 231.239 91.7268 230.956C91.96 230.456 92.3318 229.914 92.842 229.331C92.8941 229.276 92.9775 229.183 93.092 229.051C93.2166 228.897 93.3159 228.798 93.3899 228.753C93.4638 228.708 93.5225 228.695 93.566 228.716C93.5979 228.704 93.6784 228.702 93.8074 228.709C93.9248 228.684 94.0742 228.648 94.2554 228.6C94.4989 228.475 94.6751 228.438 94.7839 228.489C94.9361 228.56 94.926 228.78 94.7536 229.15C94.6319 229.411 94.3747 229.821 93.9819 230.379C93.7182 230.945 93.5327 231.428 93.4256 231.828C93.4386 231.913 93.3749 232.135 93.2344 232.493C93.0822 232.82 92.9656 233.07 92.8844 233.244C92.812 233.342 92.7301 233.49 92.6388 233.685C92.4055 234.186 92.2281 234.964 92.1067 236.019C92.0793 236.589 91.9534 237.484 91.729 238.703C91.5047 239.922 91.3142 240.615 91.1577 240.78ZM99.9132 222.174C99.8017 222.413 99.4618 222.745 98.8935 223.168C98.3253 223.592 97.8237 223.901 97.3888 224.095C96.5175 224.43 95.5498 224.575 94.4855 224.529C93.4097 224.451 92.4041 224.194 91.4688 223.758C91.273 223.666 90.9678 223.498 90.553 223.251C89.2943 222.373 88.1732 221.228 87.1897 219.816C86.1947 218.372 85.4889 216.904 85.0723 215.413C84.8357 214.614 84.6935 213.925 84.6454 213.347C84.5858 212.736 84.6269 212.08 84.7688 211.378C84.8238 211.033 85.0035 210.534 85.3077 209.882C85.5005 209.469 85.7852 209.085 86.1621 208.731C86.5491 208.355 86.9441 208.076 87.3472 207.893C87.7284 207.701 88.0278 207.655 88.2453 207.756C88.4411 207.847 88.5506 207.925 88.5738 207.989C88.6071 208.031 88.5557 208.113 88.4194 208.235L88.2673 208.561L89.3656 208.676C89.602 208.68 89.8767 208.716 90.1899 208.782C90.5031 208.849 90.7794 208.938 91.0186 209.049C91.4101 209.232 92.1157 209.707 93.1352 210.473C94.1329 211.23 94.787 211.786 95.0974 212.143C95.2308 212.311 95.4389 212.461 95.7217 212.593L97.1358 214.245C97.1605 214.363 97.2062 214.464 97.2729 214.548C97.3396 214.632 97.4208 214.656 97.5165 214.622C97.6035 214.662 97.7979 214.898 98.0996 215.33C98.3897 215.731 98.5195 215.963 98.4891 216.028C98.4789 216.05 98.4746 216.088 98.4761 216.142C98.4558 216.185 98.4783 216.222 98.5435 216.252C98.6305 216.293 98.7879 216.552 99.0157 217.029C99.2536 217.484 99.4712 217.983 99.6686 218.525C99.8645 219.013 99.9951 219.67 100.061 220.495C100.115 221.288 100.065 221.848 99.9132 222.174ZM97.8121 221.313C98.0555 220.791 98.096 220.307 97.9334 219.861C97.8434 219.316 97.6214 218.656 97.2674 217.882C96.9018 217.076 96.5028 216.426 96.0706 215.933C95.8675 215.574 95.6333 215.253 95.3679 214.97C95.1126 214.666 94.5825 214.127 93.7776 213.355C93.6311 213.101 93.4099 212.866 93.1141 212.648C92.8066 212.399 92.5115 212.208 92.2287 212.076C91.2717 211.63 90.6227 211.261 90.2819 210.97C89.6729 210.686 89.2872 210.519 89.1248 210.47C88.9406 210.411 88.726 210.417 88.481 210.488C88.1737 210.636 87.9541 210.851 87.8222 211.134C87.7512 211.286 87.7064 211.609 87.6877 212.104C87.6472 212.588 87.6408 212.943 87.6684 213.167C87.6511 213.318 87.6272 213.426 87.5967 213.491C87.5359 213.622 87.4583 213.731 87.3641 213.82C87.2583 213.876 87.1619 213.884 87.0749 213.844C86.9226 213.773 86.8161 213.803 86.7552 213.933C86.6741 214.107 86.693 214.407 86.812 214.834C86.931 215.26 87.116 215.743 87.367 216.284C87.5528 216.794 87.7921 217.303 88.0852 217.811C88.3666 218.286 88.5508 218.544 88.6378 218.585C88.7031 218.615 88.8024 218.714 88.9358 218.882C89.0794 219.029 89.1955 219.149 89.2839 219.243C89.4522 219.507 89.78 219.912 90.2673 220.457C90.7329 220.992 91.081 221.352 91.3116 221.539L93.0734 222.361C93.6172 222.615 94.0566 222.78 94.3915 222.856C94.7265 222.933 95.0976 222.961 95.5051 222.939C95.6979 222.923 95.9487 222.868 96.2575 222.773C96.5663 222.679 96.7635 222.625 96.849 222.612C97.0723 222.531 97.2368 222.462 97.3426 222.405C97.4369 222.317 97.5195 222.197 97.5905 222.044C97.6716 221.87 97.7455 221.627 97.8121 221.313ZM106.763 207.486C106.651 207.725 106.311 208.056 105.743 208.48C105.175 208.903 104.673 209.212 104.238 209.407C103.367 209.742 102.399 209.886 101.335 209.84C100.259 209.762 99.2535 209.505 98.3182 209.069C98.1224 208.978 97.8172 208.809 97.4024 208.563C96.1437 207.684 95.0226 206.539 94.0391 205.127C93.0441 203.684 92.3383 202.216 91.9217 200.724C91.6851 199.925 91.5428 199.237 91.4948 198.658C91.4352 198.048 91.4763 197.392 91.6182 196.69C91.6732 196.345 91.8528 195.846 92.1571 195.193C92.3498 194.78 92.6346 194.396 93.0115 194.043C93.3985 193.667 93.7935 193.388 94.1965 193.205C94.5778 193.012 94.8772 192.966 95.0947 193.068C95.2905 193.159 95.4 193.236 95.4232 193.3C95.4565 193.342 95.4051 193.424 95.2688 193.546L95.1167 193.872L96.215 193.987C96.4514 193.992 96.7261 194.027 97.0393 194.094C97.3525 194.16 97.6287 194.249 97.868 194.361C98.2595 194.543 98.965 195.018 99.9845 195.785C100.982 196.541 101.636 197.098 101.947 197.454C102.08 197.623 102.288 197.773 102.571 197.904L103.985 199.557C104.01 199.674 104.056 199.775 104.122 199.859C104.189 199.943 104.27 199.968 104.366 199.933C104.453 199.974 104.647 200.21 104.949 200.642C105.239 201.042 105.369 201.275 105.338 201.34C105.328 201.362 105.324 201.399 105.325 201.453C105.305 201.496 105.328 201.533 105.393 201.564C105.48 201.604 105.637 201.863 105.865 202.34C106.103 202.795 106.321 203.294 106.518 203.836C106.714 204.325 106.845 204.982 106.91 205.807C106.964 206.6 106.915 207.159 106.763 207.486ZM104.661 206.625C104.905 206.103 104.945 205.619 104.783 205.172C104.693 204.627 104.471 203.967 104.117 203.193C103.751 202.387 103.352 201.738 102.92 201.245C102.717 200.885 102.483 200.564 102.217 200.282C101.962 199.977 101.432 199.439 100.627 198.666C100.48 198.413 100.259 198.177 99.9634 197.96C99.656 197.71 99.3609 197.52 99.0781 197.388C98.1211 196.942 97.4721 196.573 97.1313 196.281C96.5223 195.997 96.1365 195.831 95.9741 195.782C95.79 195.722 95.5754 195.728 95.3304 195.799C95.0231 195.947 94.8035 196.163 94.6716 196.445C94.6006 196.598 94.5558 196.921 94.5371 197.415C94.4966 197.9 94.4902 198.254 94.5178 198.479C94.5004 198.63 94.4765 198.738 94.4461 198.803C94.3853 198.933 94.3077 199.043 94.2135 199.131C94.1077 199.188 94.0113 199.196 93.9243 199.155C93.772 199.084 93.6654 199.114 93.6046 199.245C93.5234 199.419 93.5424 199.719 93.6614 200.145C93.7804 200.571 93.9654 201.055 94.2164 201.595C94.4021 202.106 94.6415 202.615 94.9346 203.122C95.216 203.597 95.4002 203.855 95.4872 203.896C95.5525 203.926 95.6518 204.026 95.7852 204.194C95.9288 204.34 96.0448 204.461 96.1333 204.555C96.3016 204.819 96.6294 205.223 97.1167 205.768C97.5823 206.303 97.9304 206.664 98.1609 206.851L99.9228 207.672C100.467 207.926 100.906 208.091 101.241 208.168C101.576 208.245 101.947 208.272 102.354 208.25C102.547 208.234 102.798 208.179 103.107 208.085C103.416 207.99 103.613 207.937 103.698 207.924C103.922 207.842 104.086 207.773 104.192 207.717C104.286 207.628 104.369 207.508 104.44 207.356C104.521 207.182 104.595 206.938 104.661 206.625ZM111.795 196.438C111.615 196.54 111.43 196.625 111.238 196.695C111.035 196.733 110.89 196.731 110.803 196.691C110.696 196.694 110.621 196.712 110.579 196.745C110.537 196.779 110.501 196.828 110.471 196.893C110.474 197 110.292 197.022 109.925 196.956C109.536 196.881 109.276 196.786 109.144 196.672C108.989 196.493 108.972 196.274 109.094 196.013C109.165 195.86 109.274 195.739 109.422 195.649C109.548 195.549 109.681 195.519 109.822 195.558C110.016 195.596 110.229 195.509 110.459 195.299C110.678 195.057 110.884 194.729 111.077 194.316C111.482 193.446 111.635 192.352 111.535 191.034C111.444 189.694 111.161 188.569 110.685 187.659C110.397 187.312 109.989 186.937 109.463 186.533C108.925 186.096 108.493 185.802 108.166 185.65C107.971 185.559 107.857 185.546 107.827 185.611C107.783 185.591 107.686 185.572 107.536 185.554C107.395 185.515 107.222 185.488 107.018 185.472C106.663 185.439 106.22 185.537 105.689 185.766C105.159 185.995 104.731 186.259 104.406 186.558C104.035 187.126 103.779 187.563 103.637 187.867C103.515 188.128 103.44 188.318 103.411 188.437L103.215 188.942C103.114 189.159 103.017 189.339 102.924 189.481C102.831 189.623 102.775 189.716 102.754 189.76C102.63 189.913 102.345 190.098 101.9 190.315C101.433 190.521 101.123 190.588 100.971 190.517C100.675 190.3 100.197 189.679 99.5352 188.656C98.852 187.622 98.3827 186.755 98.1273 186.053C97.7472 185.108 97.5606 184.173 97.5676 183.25C97.5629 182.294 97.7533 181.403 98.1388 180.577C98.5141 179.772 98.8111 179.248 99.03 179.006C99.259 178.742 99.6084 178.561 100.078 178.462C100.432 178.442 100.718 178.482 100.935 178.584C101.109 178.665 101.23 178.774 101.298 178.912C101.367 179.05 101.365 179.195 101.294 179.347C101.233 179.478 101.14 179.593 101.014 179.693C100.75 179.861 100.511 180.174 100.298 180.631C100.065 181.131 99.8797 181.812 99.7422 182.675C99.7033 183.213 99.7578 183.834 99.9059 184.539C100.042 185.212 100.205 185.658 100.393 185.878C100.417 185.942 100.457 186.027 100.513 186.133C100.548 186.228 100.539 186.304 100.487 186.359C100.499 186.391 100.533 186.46 100.589 186.566C100.634 186.64 100.689 186.692 100.755 186.722C100.79 186.818 100.829 186.903 100.874 186.977C100.919 187.05 100.943 187.114 100.944 187.168C100.934 187.19 100.886 187.207 100.801 187.22L101.112 187.405L101.275 187.481C101.405 187.542 101.523 187.544 101.629 187.487C101.745 187.409 101.885 187.223 102.049 186.928C102.42 186.36 102.71 185.965 102.918 185.745C103.137 185.503 103.516 185.203 104.053 184.844C104.833 184.308 105.733 184.025 106.752 183.997C107.75 183.959 108.738 184.169 109.717 184.625C109.912 184.716 110.218 184.885 110.632 185.132C111.146 185.45 111.502 185.709 111.7 185.908C111.909 186.084 112.165 186.416 112.468 186.901C113.158 188.149 113.555 189.54 113.662 191.072C113.746 192.595 113.54 193.889 113.043 194.955C112.739 195.607 112.323 196.102 111.795 196.438ZM113.787 179.048C113.584 179.483 113.352 179.838 113.091 180.114C112.949 180.418 112.815 180.62 112.689 180.721C112.573 180.799 112.408 180.841 112.193 180.847C111.937 180.886 111.754 180.88 111.645 180.83C111.515 180.769 111.473 180.603 111.519 180.334C111.544 180.054 111.665 179.594 111.884 178.955C112.036 178.231 112.5 176.952 113.277 175.116C114.032 173.27 114.693 171.738 115.261 170.52C115.525 169.954 115.735 169.589 115.892 169.423C116.026 169.248 116.258 169.091 116.587 168.954C116.97 168.814 117.281 168.8 117.52 168.912C117.716 169.003 117.817 169.156 117.823 169.371C117.839 169.564 117.759 169.791 117.584 170.054L116.789 172.185C116.476 172.913 116.011 173.994 115.395 175.428C114.79 176.841 114.254 178.047 113.787 179.048ZM125.345 167.465C125.209 167.587 124.955 167.733 124.584 167.904C124.213 168.076 123.909 168.159 123.673 168.155C123.641 168.166 123.571 168.147 123.462 168.096C123.31 168.025 123.151 167.911 122.986 167.755C122.82 167.598 122.753 167.487 122.783 167.422C122.879 167.387 122.797 167.137 122.537 166.672C122.266 166.175 122.081 165.89 121.982 165.817C121.906 165.755 121.86 165.654 121.845 165.515C121.819 165.344 121.805 165.232 121.804 165.178C121.681 164.988 121.567 164.75 121.462 164.462C121.346 164.144 121.26 163.931 121.203 163.825C121.135 163.688 121.037 163.443 120.909 163.092C120.76 162.732 120.633 162.407 120.529 162.12C120.293 161.375 120.101 160.822 119.952 160.461C119.261 158.762 118.828 157.845 118.652 157.71C118.641 157.679 118.618 157.615 118.583 157.519C118.548 157.423 118.523 157.306 118.509 157.167C118.443 156.739 118.335 156.318 118.184 155.903C118.042 155.811 117.859 155.579 117.634 155.21C117.409 154.84 117.239 154.496 117.123 154.177C116.964 153.891 116.774 153.617 116.552 153.355C116.319 153.061 116.109 152.83 115.922 152.663L115.658 152.461C115.571 152.421 115.481 152.445 115.387 152.533C115.271 152.611 115.155 152.717 115.041 152.849C114.936 152.959 114.853 153.052 114.791 153.129C114.405 153.558 114.126 153.958 113.954 154.328C113.579 155.133 113.487 156.096 113.678 157.218C113.602 157.553 113.566 157.828 113.572 158.042C113.52 158.495 113.458 158.77 113.385 158.869C113.333 158.924 113.19 158.976 112.955 159.026C112.72 159.075 112.523 159.129 112.363 159.187L111.526 159.194L111.443 157.924C111.18 156.159 111.282 154.777 111.748 153.776C111.911 153.428 112.096 153.144 112.305 152.923C112.396 152.728 112.509 152.542 112.644 152.366C112.779 152.191 112.867 152.087 112.909 152.053C113.009 151.782 113.373 151.541 114.001 151.331C114.639 151.099 115.237 150.98 115.795 150.976C116.308 150.897 116.771 150.954 117.185 151.147C117.837 151.451 118.512 152.19 119.21 153.363C119.553 154.105 120.028 155.214 120.638 156.69C121.247 158.166 121.588 159.053 121.661 159.352C121.67 159.673 122.006 160.598 122.671 162.126C123.335 163.654 123.688 164.375 123.728 164.288L123.794 164.318C123.663 164.257 123.814 163.507 124.247 162.067C124.669 160.595 125.052 159.49 125.397 158.75C125.509 158.511 125.606 158.358 125.69 158.291C125.798 158.288 125.856 158.276 125.867 158.254C125.865 158.201 125.854 158.169 125.832 158.158C125.755 158.096 125.782 157.924 125.914 157.641C126.148 157.141 126.519 156.599 127.029 156.016C127.082 155.961 127.165 155.867 127.279 155.735C127.404 155.582 127.503 155.482 127.577 155.437C127.651 155.392 127.71 155.38 127.754 155.4C127.785 155.389 127.866 155.386 127.995 155.394C128.112 155.369 128.262 155.333 128.443 155.285C128.686 155.16 128.863 155.123 128.971 155.174C129.124 155.245 129.114 155.465 128.941 155.835C128.819 156.096 128.562 156.506 128.169 157.064C127.906 157.629 127.72 158.112 127.613 158.512C127.626 158.598 127.562 158.82 127.422 159.178C127.27 159.504 127.153 159.754 127.072 159.928C126.999 160.027 126.918 160.174 126.826 160.37C126.593 160.87 126.416 161.648 126.294 162.704C126.267 163.274 126.141 164.168 125.917 165.388C125.692 166.607 125.502 167.299 125.345 167.465ZM134.101 148.859C133.989 149.098 133.649 149.429 133.081 149.853C132.513 150.277 132.011 150.585 131.576 150.78C130.705 151.115 129.737 151.26 128.673 151.214C127.597 151.136 126.592 150.879 125.656 150.442C125.461 150.351 125.155 150.182 124.741 149.936C123.482 149.058 122.361 147.913 121.377 146.501C120.382 145.057 119.676 143.589 119.26 142.097C119.023 141.298 118.881 140.61 118.833 140.031C118.773 139.421 118.814 138.765 118.956 138.063C119.011 137.718 119.191 137.219 119.495 136.567C119.688 136.153 119.973 135.77 120.35 135.416C120.737 135.04 121.132 134.761 121.535 134.578C121.916 134.385 122.215 134.339 122.433 134.441C122.629 134.532 122.738 134.61 122.761 134.673C122.795 134.715 122.743 134.797 122.607 134.919L122.455 135.246L123.553 135.36C123.789 135.365 124.064 135.4 124.377 135.467C124.691 135.533 124.967 135.622 125.206 135.734C125.598 135.917 126.303 136.391 127.323 137.158C128.32 137.915 128.974 138.471 129.285 138.828C129.418 138.996 129.626 139.146 129.909 139.278L131.323 140.93C131.348 141.048 131.394 141.148 131.46 141.232C131.527 141.316 131.608 141.341 131.704 141.306C131.791 141.347 131.985 141.583 132.287 142.015C132.577 142.415 132.707 142.648 132.677 142.713C132.666 142.735 132.662 142.773 132.664 142.826C132.643 142.87 132.666 142.907 132.731 142.937C132.818 142.978 132.975 143.236 133.203 143.713C133.441 144.169 133.659 144.667 133.856 145.209C134.052 145.698 134.183 146.355 134.248 147.18C134.302 147.973 134.253 148.532 134.101 148.859ZM132 147.998C132.243 147.476 132.283 146.992 132.121 146.545C132.031 146 131.809 145.341 131.455 144.566C131.089 143.76 130.69 143.111 130.258 142.618C130.055 142.259 129.821 141.938 129.555 141.655C129.3 141.35 128.77 140.812 127.965 140.039C127.819 139.786 127.597 139.55 127.302 139.333C126.994 139.084 126.699 138.893 126.416 138.761C125.459 138.315 124.81 137.946 124.469 137.655C123.86 137.371 123.475 137.204 123.312 137.155C123.128 137.095 122.914 137.101 122.669 137.172C122.361 137.32 122.142 137.536 122.01 137.818C121.939 137.971 121.894 138.294 121.875 138.789C121.835 139.273 121.828 139.627 121.856 139.852C121.839 140.003 121.815 140.111 121.784 140.176C121.723 140.307 121.646 140.416 121.552 140.505C121.446 140.561 121.349 140.569 121.262 140.529C121.11 140.458 121.004 140.487 120.943 140.618C120.862 140.792 120.881 141.092 121 141.518C121.119 141.944 121.304 142.428 121.555 142.969C121.74 143.479 121.98 143.988 122.273 144.495C122.554 144.971 122.738 145.229 122.825 145.269C122.891 145.3 122.99 145.399 123.123 145.567C123.267 145.714 123.383 145.834 123.471 145.928C123.64 146.192 123.967 146.596 124.455 147.141C124.92 147.676 125.268 148.037 125.499 148.224L127.261 149.046C127.805 149.299 128.244 149.464 128.579 149.541C128.914 149.618 129.285 149.645 129.693 149.623C129.885 149.607 130.136 149.552 130.445 149.458C130.754 149.364 130.951 149.31 131.037 149.297C131.26 149.216 131.424 149.147 131.53 149.09C131.624 149.002 131.707 148.881 131.778 148.729C131.859 148.555 131.933 148.311 132 147.998ZM140.95 134.17C140.839 134.409 140.499 134.741 139.93 135.164C139.362 135.588 138.861 135.897 138.426 136.091C137.554 136.427 136.587 136.571 135.522 136.525C134.447 136.447 133.441 136.19 132.506 135.754C132.31 135.663 132.005 135.494 131.59 135.247C130.331 134.369 129.21 133.224 128.227 131.812C127.232 130.368 126.526 128.9 126.109 127.409C125.873 126.61 125.73 125.921 125.682 125.343C125.623 124.732 125.664 124.076 125.806 123.374C125.861 123.029 126.04 122.531 126.345 121.878C126.537 121.465 126.822 121.081 127.199 120.727C127.586 120.352 127.981 120.072 128.384 119.89C128.765 119.697 129.065 119.651 129.282 119.752C129.478 119.844 129.587 119.921 129.611 119.985C129.644 120.027 129.593 120.109 129.456 120.231L129.304 120.557L130.403 120.672C130.639 120.676 130.914 120.712 131.227 120.778C131.54 120.845 131.816 120.934 132.056 121.046C132.447 121.228 133.153 121.703 134.172 122.469C135.17 123.226 135.824 123.783 136.134 124.139C136.268 124.307 136.476 124.457 136.759 124.589L138.173 126.242C138.197 126.359 138.243 126.46 138.31 126.544C138.377 126.628 138.458 126.653 138.553 126.618C138.64 126.658 138.835 126.895 139.136 127.327C139.427 127.727 139.556 127.959 139.526 128.025C139.516 128.046 139.511 128.084 139.513 128.138C139.493 128.181 139.515 128.218 139.58 128.249C139.667 128.289 139.825 128.548 140.053 129.025C140.29 129.48 140.508 129.979 140.705 130.521C140.901 131.009 141.032 131.666 141.098 132.491C141.151 133.284 141.102 133.844 140.95 134.17ZM138.849 133.31C139.092 132.788 139.133 132.303 138.97 131.857C138.88 131.312 138.658 130.652 138.304 129.878C137.939 129.072 137.54 128.422 137.108 127.93C136.904 127.57 136.67 127.249 136.405 126.966C136.149 126.662 135.619 126.123 134.814 125.351C134.668 125.097 134.447 124.862 134.151 124.644C133.843 124.395 133.548 124.204 133.266 124.073C132.309 123.626 131.66 123.257 131.319 122.966C130.71 122.682 130.324 122.515 130.162 122.466C129.977 122.407 129.763 122.413 129.518 122.484C129.211 122.632 128.991 122.847 128.859 123.13C128.788 123.282 128.743 123.606 128.725 124.1C128.684 124.584 128.678 124.939 128.705 125.163C128.688 125.314 128.664 125.422 128.634 125.488C128.573 125.618 128.495 125.728 128.401 125.816C128.295 125.873 128.199 125.881 128.112 125.84C127.96 125.769 127.853 125.799 127.792 125.929C127.711 126.103 127.73 126.403 127.849 126.83C127.968 127.256 128.153 127.739 128.404 128.28C128.59 128.79 128.829 129.299 129.122 129.807C129.403 130.282 129.588 130.54 129.675 130.581C129.74 130.611 129.839 130.71 129.973 130.879C130.116 131.025 130.232 131.145 130.321 131.239C130.489 131.503 130.817 131.908 131.304 132.453C131.77 132.988 132.118 133.349 132.348 133.536L134.11 134.357C134.654 134.611 135.093 134.776 135.428 134.853C135.763 134.929 136.135 134.957 136.542 134.935C136.735 134.919 136.986 134.864 137.294 134.769C137.603 134.675 137.8 134.621 137.886 134.608C138.109 134.527 138.274 134.458 138.38 134.402C138.474 134.313 138.556 134.193 138.627 134.04C138.709 133.866 138.782 133.623 138.849 133.31ZM147.062 120.21C146.971 120.803 146.824 121.318 146.621 121.753C146.307 122.427 145.783 122.897 145.049 123.164C144.658 123.379 144.318 123.512 144.03 123.563C143.729 123.582 143.358 123.527 142.914 123.4C142.418 123.328 142.061 123.241 141.844 123.139C141.604 123.028 141.041 122.646 140.154 121.994C139.353 121.382 138.787 120.92 138.457 120.607C138.104 120.283 137.753 119.815 137.404 119.202C137.04 118.847 136.674 118.438 136.307 117.976C135.94 117.513 135.717 117.197 135.637 117.028C135.569 116.89 135.422 116.636 135.198 116.267C134.961 115.865 134.779 115.489 134.651 115.138L133.888 113.709C133.834 113.314 133.756 113.026 133.655 112.846C133.38 112.242 133.185 111.383 133.069 110.269C132.931 109.145 132.976 108.253 133.205 107.592C133.24 107.29 133.303 107.041 133.394 106.846C133.506 106.606 133.606 106.534 133.694 106.628C133.726 106.617 133.79 106.593 133.885 106.559C133.981 106.524 134.075 106.435 134.168 106.293C134.22 106.238 134.338 106.213 134.52 106.219C134.691 106.193 134.82 106.173 134.905 106.16C135.121 106.208 135.279 106.295 135.38 106.421C135.48 106.547 135.594 106.812 135.723 107.217C135.799 107.623 135.828 107.901 135.811 108.052C135.782 108.171 135.692 108.249 135.543 108.285C135.488 108.233 135.418 108.24 135.334 108.307C135.25 108.373 135.198 108.428 135.178 108.472C135.033 108.669 135.029 109.303 135.165 110.373C135.312 111.421 135.54 112.295 135.849 112.995C136.061 113.677 136.239 114.091 136.382 114.237C136.51 114.588 136.654 114.933 136.813 115.272C136.961 115.58 137.063 115.786 137.12 115.892C137.217 115.911 137.301 115.844 137.372 115.692C137.433 115.561 137.461 115.416 137.457 115.255C137.453 115.094 137.434 114.992 137.4 114.95C137.313 114.91 137.316 114.62 137.409 114.08C137.49 113.509 137.625 112.963 137.815 112.442C137.832 112.292 137.871 112.151 137.932 112.021C138.013 111.847 138.271 111.464 138.706 110.872C139.048 110.422 139.303 110.131 139.471 109.997C139.64 109.864 139.932 109.749 140.348 109.651C140.932 109.421 141.455 109.32 141.918 109.351C142.369 109.349 142.855 109.47 143.377 109.714C143.812 109.916 144.151 110.127 144.393 110.346C144.624 110.533 144.83 110.801 145.011 111.151C145.336 111.646 145.681 112.271 146.045 113.023C146.397 113.743 146.6 114.275 146.652 114.617C146.655 114.724 146.663 114.821 146.676 114.906C146.689 114.992 146.701 115.05 146.713 115.082C146.932 115.237 147.08 115.942 147.157 117.196C147.245 118.428 147.213 119.433 147.062 120.21ZM144.444 121.651C144.734 121.257 144.899 121.016 144.94 120.929C145.072 120.646 145.15 120.166 145.174 119.489C145.267 118.95 145.345 118.641 145.407 118.565C145.382 118.447 145.344 118.217 145.291 117.875C145.249 117.511 145.2 117.078 145.143 116.575C144.956 115.216 144.596 114.029 144.063 113.013C143.541 111.975 142.965 111.309 142.334 111.014C142.225 110.964 142.133 110.934 142.058 110.925L141.992 110.895C141.884 110.844 141.716 110.806 141.49 110.78C141.274 110.732 141.144 110.698 141.101 110.678C141.06 110.765 140.977 110.885 140.853 111.039C140.738 111.171 140.614 111.324 140.479 111.5C140.314 111.741 140.201 111.926 140.14 112.057C139.977 112.405 139.734 113.324 139.41 114.815C139.381 114.934 139.348 115.09 139.31 115.285C139.282 115.457 139.24 115.662 139.182 115.9C139.154 116.073 139.144 116.293 139.151 116.561C139.137 116.819 139.116 117.035 139.089 117.207C139.186 117.623 139.201 117.988 139.135 118.301C139.035 118.572 139.14 118.886 139.45 119.243C139.761 119.599 140.404 120.151 141.38 120.897C142.234 121.507 142.748 121.853 142.922 121.934C143.14 122.036 143.323 122.068 143.472 122.032C143.722 122.122 143.915 122.132 144.053 122.064C144.169 121.986 144.299 121.848 144.444 121.651Z" fill="black"/>
</svg>
