<svg width="286" height="1122" viewBox="0 0 286 1122" fill="none" xmlns="http://www.w3.org/2000/svg">
<rect x="38.5" y="1091.5" width="214" height="28" rx="2.5" fill="white" stroke="black" stroke-width="5"/>
<rect x="52.5" y="1091.5" width="185" height="28" rx="2.5" fill="#112130" stroke="black" stroke-width="5"/>
<rect x="10.5" y="794.5" width="214" height="28" rx="2.5" fill="white" stroke="black" stroke-width="5"/>
<rect x="24.5" y="794.5" width="185" height="28" rx="2.5" fill="#112130" stroke="black" stroke-width="5"/>
<rect x="38.5" y="497.5" width="214" height="28" rx="2.5" fill="white" stroke="black" stroke-width="5"/>
<rect x="52.5" y="497.5" width="185" height="28" rx="2.5" fill="#112130" stroke="black" stroke-width="5"/>
<rect x="24.5" y="200.5" width="214" height="28" rx="2.5" fill="white" stroke="black" stroke-width="5"/>
<rect x="38.5" y="200.5" width="185" height="28" rx="2.5" fill="#112130" stroke="black" stroke-width="5"/>
<rect x="38.5" y="860.5" width="214" height="28" rx="2.5" fill="white" stroke="black" stroke-width="5"/>
<rect x="52.5" y="860.5" width="185" height="28" rx="2.5" fill="#4B7166" stroke="black" stroke-width="5"/>
<rect x="24.5" y="563.5" width="214" height="28" rx="2.5" fill="white" stroke="black" stroke-width="5"/>
<rect x="38.5" y="563.5" width="185" height="28" rx="2.5" fill="#4B7166" stroke="black" stroke-width="5"/>
<rect x="24.5" y="266.5" width="214" height="28" rx="2.5" fill="white" stroke="black" stroke-width="5"/>
<rect x="38.5" y="266.5" width="185" height="28" rx="2.5" fill="#4B7166" stroke="black" stroke-width="5"/>
<rect x="10.5" y="1058.5" width="214" height="28" rx="2.5" fill="white" stroke="black" stroke-width="5"/>
<rect x="24.5" y="1058.5" width="185" height="28" rx="2.5" fill="#612628" stroke="black" stroke-width="5"/>
<rect x="56.5" y="761.5" width="214" height="28" rx="2.5" fill="white" stroke="black" stroke-width="5"/>
<rect x="70.5" y="761.5" width="185" height="28" rx="2.5" fill="#612628" stroke="black" stroke-width="5"/>
<rect x="69.5" y="464.5" width="214" height="28" rx="2.5" fill="white" stroke="black" stroke-width="5"/>
<rect x="83.5" y="464.5" width="185" height="28" rx="2.5" fill="#612628" stroke="black" stroke-width="5"/>
<rect x="2.5" y="167.5" width="214" height="28" rx="2.5" fill="white" stroke="black" stroke-width="5"/>
<rect x="16.5" y="167.5" width="185" height="28" rx="2.5" fill="#612628" stroke="black" stroke-width="5"/>
<rect x="38.5" y="827.5" width="214" height="28" rx="2.5" fill="white" stroke="black" stroke-width="5"/>
<rect x="52.5" y="827.5" width="185" height="28" rx="2.5" fill="#2A4944" stroke="black" stroke-width="5"/>
<rect x="52.5" y="530.5" width="214" height="28" rx="2.5" fill="white" stroke="black" stroke-width="5"/>
<rect x="66.5" y="530.5" width="185" height="28" rx="2.5" fill="#2A4944" stroke="black" stroke-width="5"/>
<rect x="44.5" y="233.5" width="214" height="28" rx="2.5" fill="white" stroke="black" stroke-width="5"/>
<rect x="58.5" y="233.5" width="185" height="28" rx="2.5" fill="#2A4944" stroke="black" stroke-width="5"/>
<rect x="20.5" y="1025.5" width="214" height="28" rx="2.5" fill="white" stroke="black" stroke-width="5"/>
<rect x="34.5" y="1025.5" width="185" height="28" rx="2.5" fill="#CE5945" stroke="black" stroke-width="5"/>
<rect x="16.5" y="728.5" width="214" height="28" rx="2.5" fill="white" stroke="black" stroke-width="5"/>
<rect x="30.5" y="728.5" width="185" height="28" rx="2.5" fill="#CE5945" stroke="black" stroke-width="5"/>
<rect x="24.5" y="431.5" width="214" height="28" rx="2.5" fill="white" stroke="black" stroke-width="5"/>
<rect x="38.5" y="431.5" width="185" height="28" rx="2.5" fill="#CE5945" stroke="black" stroke-width="5"/>
<rect x="2.5" y="134.5" width="214" height="28" rx="2.5" fill="white" stroke="black" stroke-width="5"/>
<rect x="16.5" y="134.5" width="185" height="28" rx="2.5" fill="#CE5945" stroke="black" stroke-width="5"/>
<rect x="38.5" y="992.5" width="214" height="28" rx="2.5" fill="white" stroke="black" stroke-width="5"/>
<rect x="52.5" y="992.5" width="185" height="28" rx="2.5" fill="#D69F5C" stroke="black" stroke-width="5"/>
<rect x="24.5" y="695.5" width="214" height="28" rx="2.5" fill="white" stroke="black" stroke-width="5"/>
<rect x="38.5" y="695.5" width="185" height="28" rx="2.5" fill="#D69F5C" stroke="black" stroke-width="5"/>
<rect x="24.5" y="398.5" width="214" height="28" rx="2.5" fill="white" stroke="black" stroke-width="5"/>
<rect x="38.5" y="398.5" width="185" height="28" rx="2.5" fill="#D69F5C" stroke="black" stroke-width="5"/>
<rect x="38.5" y="101.5" width="214" height="28" rx="2.5" fill="white" stroke="black" stroke-width="5"/>
<rect x="52.5" y="101.5" width="185" height="28" rx="2.5" fill="#D69F5C" stroke="black" stroke-width="5"/>
<rect x="60.5" y="959.5" width="214" height="28" rx="2.5" fill="white" stroke="black" stroke-width="5"/>
<rect x="74.5" y="959.5" width="185" height="28" rx="2.5" fill="#EFB4B6" stroke="black" stroke-width="5"/>
<rect x="48.5" y="662.5" width="214" height="28" rx="2.5" fill="white" stroke="black" stroke-width="5"/>
<rect x="62.5" y="662.5" width="185" height="28" rx="2.5" fill="#EFB4B6" stroke="black" stroke-width="5"/>
<rect x="44.5" y="365.5" width="214" height="28" rx="2.5" fill="white" stroke="black" stroke-width="5"/>
<rect x="58.5" y="365.5" width="185" height="28" rx="2.5" fill="#EFB4B6" stroke="black" stroke-width="5"/>
<rect x="52.5" y="68.5" width="214" height="28" rx="2.5" fill="white" stroke="black" stroke-width="5"/>
<rect x="66.5" y="68.5" width="185" height="28" rx="2.5" fill="#EFB4B6" stroke="black" stroke-width="5"/>
<rect x="60.5" y="926.5" width="214" height="28" rx="2.5" fill="white" stroke="black" stroke-width="5"/>
<rect x="74.5" y="926.5" width="185" height="28" rx="2.5" fill="#C99FAB" stroke="black" stroke-width="5"/>
<rect x="38.5" y="629.5" width="214" height="28" rx="2.5" fill="white" stroke="black" stroke-width="5"/>
<rect x="52.5" y="629.5" width="185" height="28" rx="2.5" fill="#C99FAB" stroke="black" stroke-width="5"/>
<rect x="30.5" y="332.5" width="214" height="28" rx="2.5" fill="white" stroke="black" stroke-width="5"/>
<rect x="44.5" y="332.5" width="185" height="28" rx="2.5" fill="#C99FAB" stroke="black" stroke-width="5"/>
<rect x="52.5" y="35.5" width="214" height="28" rx="2.5" fill="white" stroke="black" stroke-width="5"/>
<rect x="66.5" y="35.5" width="185" height="28" rx="2.5" fill="#C99FAB" stroke="black" stroke-width="5"/>
<rect x="16.5" y="893.5" width="214" height="28" rx="2.5" fill="white" stroke="black" stroke-width="5"/>
<rect x="30.5" y="893.5" width="185" height="28" rx="2.5" fill="#81A09A" stroke="black" stroke-width="5"/>
<rect x="24.5" y="596.5" width="214" height="28" rx="2.5" fill="white" stroke="black" stroke-width="5"/>
<rect x="38.5" y="596.5" width="185" height="28" rx="2.5" fill="#81A09A" stroke="black" stroke-width="5"/>
<rect x="44.5" y="299.5" width="214" height="28" rx="2.5" fill="white" stroke="black" stroke-width="5"/>
<rect x="58.5" y="299.5" width="185" height="28" rx="2.5" fill="#81A09A" stroke="black" stroke-width="5"/>
<rect x="38.5" y="2.5" width="214" height="28" rx="2.5" fill="white" stroke="black" stroke-width="5"/>
<rect x="52.5" y="2.5" width="185" height="28" rx="2.5" fill="#81A09A" stroke="black" stroke-width="5"/>
</svg>
