<svg width="80" height="350" viewBox="0 0 80 350" fill="none" xmlns="http://www.w3.org/2000/svg">
<rect x="2.5" y="2.5" width="75" height="345" rx="2.5" fill="#F9E5CC" stroke="black" stroke-width="5"/>
<rect x="2.5" y="42.5" width="75" height="255" rx="2.5" fill="#97466F" stroke="black" stroke-width="5"/>
<path d="M51.172 242.276C51.1 242.444 50.932 242.684 50.668 242.996C50.404 243.308 50.164 243.512 49.948 243.608C49.924 243.632 49.852 243.644 49.732 243.644C49.564 243.644 49.372 243.608 49.156 243.536C48.94 243.464 48.832 243.392 48.832 243.32C48.904 243.248 48.724 243.056 48.292 242.744C47.836 242.408 47.548 242.228 47.428 242.204C47.332 242.18 47.248 242.108 47.176 241.988C47.08 241.844 47.02 241.748 46.996 241.7C46.804 241.58 46.6 241.412 46.384 241.196C46.144 240.956 45.976 240.8 45.88 240.728C45.76 240.632 45.568 240.452 45.304 240.188C45.016 239.924 44.764 239.684 44.548 239.468C44.02 238.892 43.612 238.472 43.324 238.208C41.98 236.96 41.2 236.312 40.984 236.264C40.96 236.24 40.912 236.192 40.84 236.12C40.768 236.048 40.696 235.952 40.624 235.832C40.384 235.472 40.108 235.136 39.796 234.824C39.628 234.8 39.364 234.668 39.004 234.428C38.644 234.188 38.344 233.948 38.104 233.708C37.84 233.516 37.552 233.348 37.24 233.204C36.904 233.036 36.616 232.916 36.376 232.844L36.052 232.772C35.956 232.772 35.884 232.832 35.836 232.952C35.764 233.072 35.704 233.216 35.656 233.384C35.608 233.528 35.572 233.648 35.548 233.744C35.38 234.296 35.296 234.776 35.296 235.184C35.296 236.072 35.62 236.984 36.268 237.92C36.34 238.256 36.424 238.52 36.52 238.712C36.664 239.144 36.724 239.42 36.7 239.54C36.676 239.612 36.568 239.72 36.376 239.864C36.184 240.008 36.028 240.14 35.908 240.26L35.152 240.62L34.54 239.504C33.556 238.016 33.064 236.72 33.064 235.616C33.064 235.232 33.112 234.896 33.208 234.608C33.208 234.392 33.232 234.176 33.28 233.96C33.328 233.744 33.364 233.612 33.388 233.564C33.364 233.276 33.592 232.904 34.072 232.448C34.552 231.968 35.044 231.608 35.548 231.368C35.98 231.08 36.424 230.936 36.88 230.936C37.6 230.936 38.524 231.32 39.652 232.088C40.276 232.616 41.176 233.42 42.352 234.5C43.528 235.58 44.212 236.24 44.404 236.48C44.548 236.768 45.244 237.464 46.492 238.568C47.74 239.672 48.364 240.176 48.364 240.08L48.436 240.08C48.292 240.08 48.112 239.336 47.896 237.848C47.656 236.336 47.536 235.172 47.536 234.356C47.536 234.092 47.56 233.912 47.608 233.816C47.704 233.768 47.752 233.732 47.752 233.708C47.728 233.66 47.704 233.636 47.68 233.636C47.584 233.612 47.536 233.444 47.536 233.132C47.536 232.58 47.644 231.932 47.86 231.188C47.884 231.116 47.92 230.996 47.968 230.828C48.016 230.636 48.064 230.504 48.112 230.432C48.16 230.36 48.208 230.324 48.256 230.324C48.28 230.3 48.352 230.264 48.472 230.216C48.568 230.144 48.688 230.048 48.832 229.928C49 229.712 49.144 229.604 49.264 229.604C49.432 229.604 49.516 229.808 49.516 230.216C49.516 230.504 49.456 230.984 49.336 231.656C49.336 232.28 49.372 232.796 49.444 233.204C49.492 233.276 49.528 233.504 49.552 233.888C49.552 234.248 49.552 234.524 49.552 234.716C49.528 234.836 49.516 235.004 49.516 235.22C49.516 235.772 49.684 236.552 50.02 237.56C50.236 238.088 50.5 238.952 50.812 240.152C51.124 241.352 51.244 242.06 51.172 242.276ZM51.244 221.713C51.244 221.977 51.076 222.421 50.74 223.045C50.404 223.669 50.08 224.161 49.768 224.521C49.12 225.193 48.304 225.733 47.32 226.141C46.312 226.525 45.292 226.717 44.26 226.717C44.044 226.717 43.696 226.693 43.216 226.645C41.704 226.381 40.204 225.817 38.716 224.953C37.204 224.065 35.944 223.033 34.936 221.857C34.384 221.233 33.964 220.669 33.676 220.165C33.364 219.637 33.124 219.025 32.956 218.329C32.86 217.993 32.812 217.465 32.812 216.745C32.812 216.289 32.908 215.821 33.1 215.341C33.292 214.837 33.532 214.417 33.82 214.081C34.084 213.745 34.336 213.577 34.576 213.577C34.792 213.577 34.924 213.601 34.972 213.649C35.02 213.673 35.008 213.769 34.936 213.937L34.936 214.297L35.98 213.937C36.196 213.841 36.46 213.757 36.772 213.685C37.084 213.613 37.372 213.577 37.636 213.577C38.068 213.577 38.908 213.709 40.156 213.973C41.38 214.237 42.208 214.465 42.64 214.657C42.832 214.753 43.084 214.801 43.396 214.801L45.376 215.701C45.448 215.797 45.532 215.869 45.628 215.917C45.724 215.965 45.808 215.953 45.88 215.881C45.976 215.881 46.252 216.013 46.708 216.277C47.14 216.517 47.356 216.673 47.356 216.745C47.356 216.769 47.368 216.805 47.392 216.853C47.392 216.901 47.428 216.925 47.5 216.925C47.596 216.925 47.848 217.093 48.256 217.429C48.664 217.741 49.072 218.101 49.48 218.509C49.864 218.869 50.26 219.409 50.668 220.129C51.052 220.825 51.244 221.353 51.244 221.713ZM48.976 221.821C48.976 221.245 48.808 220.789 48.472 220.453C48.16 219.997 47.68 219.493 47.032 218.941C46.36 218.365 45.724 217.945 45.124 217.681C44.788 217.441 44.44 217.249 44.08 217.105C43.72 216.937 43.012 216.673 41.956 216.313C41.716 216.145 41.416 216.025 41.056 215.953C40.672 215.857 40.324 215.809 40.012 215.809C38.956 215.809 38.212 215.749 37.78 215.629C37.108 215.629 36.688 215.641 36.52 215.665C36.328 215.689 36.136 215.785 35.944 215.953C35.728 216.217 35.62 216.505 35.62 216.817C35.62 216.985 35.716 217.297 35.908 217.753C36.076 218.209 36.22 218.533 36.34 218.725C36.388 218.869 36.412 218.977 36.412 219.049C36.412 219.193 36.388 219.325 36.34 219.445C36.268 219.541 36.184 219.589 36.088 219.589C35.92 219.589 35.836 219.661 35.836 219.805C35.836 219.997 35.98 220.261 36.268 220.597C36.556 220.933 36.928 221.293 37.384 221.677C37.768 222.061 38.2 222.421 38.68 222.757C39.136 223.069 39.412 223.225 39.508 223.225C39.58 223.225 39.712 223.273 39.904 223.369C40.096 223.441 40.252 223.501 40.372 223.549C40.636 223.717 41.104 223.945 41.776 224.233C42.424 224.521 42.892 224.701 43.18 224.773L45.124 224.773C45.724 224.773 46.192 224.737 46.528 224.665C46.864 224.593 47.212 224.461 47.572 224.269C47.74 224.173 47.944 224.017 48.184 223.801C48.424 223.585 48.58 223.453 48.652 223.405C48.82 223.237 48.94 223.105 49.012 223.009C49.06 222.889 49.084 222.745 49.084 222.577C49.084 222.385 49.048 222.133 48.976 221.821ZM51.244 205.506C51.244 205.77 51.076 206.214 50.74 206.838C50.404 207.462 50.08 207.954 49.768 208.314C49.12 208.986 48.304 209.526 47.32 209.934C46.312 210.318 45.292 210.51 44.26 210.51C44.044 210.51 43.696 210.486 43.216 210.438C41.704 210.174 40.204 209.61 38.716 208.746C37.204 207.858 35.944 206.826 34.936 205.65C34.384 205.026 33.964 204.462 33.676 203.958C33.364 203.43 33.124 202.818 32.956 202.122C32.86 201.786 32.812 201.258 32.812 200.538C32.812 200.082 32.908 199.614 33.1 199.134C33.292 198.63 33.532 198.21 33.82 197.874C34.084 197.538 34.336 197.37 34.576 197.37C34.792 197.37 34.924 197.394 34.972 197.442C35.02 197.466 35.008 197.562 34.936 197.73L34.936 198.09L35.98 197.73C36.196 197.634 36.46 197.55 36.772 197.478C37.084 197.406 37.372 197.37 37.636 197.37C38.068 197.37 38.908 197.502 40.156 197.766C41.38 198.03 42.208 198.258 42.64 198.45C42.832 198.546 43.084 198.594 43.396 198.594L45.376 199.494C45.448 199.59 45.532 199.662 45.628 199.71C45.724 199.758 45.808 199.746 45.88 199.674C45.976 199.674 46.252 199.806 46.708 200.07C47.14 200.31 47.356 200.466 47.356 200.538C47.356 200.562 47.368 200.598 47.392 200.646C47.392 200.694 47.428 200.718 47.5 200.718C47.596 200.718 47.848 200.886 48.256 201.222C48.664 201.534 49.072 201.894 49.48 202.302C49.864 202.662 50.26 203.202 50.668 203.922C51.052 204.618 51.244 205.146 51.244 205.506ZM48.976 205.614C48.976 205.038 48.808 204.582 48.472 204.246C48.16 203.79 47.68 203.286 47.032 202.734C46.36 202.158 45.724 201.738 45.124 201.474C44.788 201.234 44.44 201.042 44.08 200.898C43.72 200.73 43.012 200.466 41.956 200.106C41.716 199.938 41.416 199.818 41.056 199.746C40.672 199.65 40.324 199.602 40.012 199.602C38.956 199.602 38.212 199.542 37.78 199.422C37.108 199.422 36.688 199.434 36.52 199.458C36.328 199.482 36.136 199.578 35.944 199.746C35.728 200.01 35.62 200.298 35.62 200.61C35.62 200.778 35.716 201.09 35.908 201.546C36.076 202.002 36.22 202.326 36.34 202.518C36.388 202.662 36.412 202.77 36.412 202.842C36.412 202.986 36.388 203.118 36.34 203.238C36.268 203.334 36.184 203.382 36.088 203.382C35.92 203.382 35.836 203.454 35.836 203.598C35.836 203.79 35.98 204.054 36.268 204.39C36.556 204.726 36.928 205.086 37.384 205.47C37.768 205.854 38.2 206.214 38.68 206.55C39.136 206.862 39.412 207.018 39.508 207.018C39.58 207.018 39.712 207.066 39.904 207.162C40.096 207.234 40.252 207.294 40.372 207.342C40.636 207.51 41.104 207.738 41.776 208.026C42.424 208.314 42.892 208.494 43.18 208.566L45.124 208.566C45.724 208.566 46.192 208.53 46.528 208.458C46.864 208.386 47.212 208.254 47.572 208.062C47.74 207.966 47.944 207.81 48.184 207.594C48.424 207.378 48.58 207.246 48.652 207.198C48.82 207.03 48.94 206.898 49.012 206.802C49.06 206.682 49.084 206.538 49.084 206.37C49.084 206.178 49.048 205.926 48.976 205.614ZM52.972 188.111C52.948 188.279 52.84 188.471 52.648 188.687C52.456 188.903 52.312 189.011 52.216 189.011C52.144 188.987 52.096 188.987 52.072 189.011C52.048 189.035 52.036 189.083 52.036 189.155C51.988 189.179 51.892 189.215 51.748 189.263C51.604 189.287 51.46 189.287 51.316 189.263C51.22 189.263 51.064 189.251 50.848 189.227C50.608 189.203 50.356 189.191 50.092 189.191C49.444 189.143 48.46 188.939 47.14 188.579C45.796 188.195 44.524 187.799 43.324 187.391C42.508 187.079 42.016 186.923 41.848 186.923C41.608 186.923 41.488 187.091 41.488 187.427C41.488 187.595 41.5 187.739 41.524 187.859C41.548 188.003 41.56 188.195 41.56 188.435C41.56 189.371 41.224 190.175 40.552 190.847C39.88 191.495 39.076 191.819 38.14 191.819C37.708 191.819 37.336 191.759 37.024 191.639C36.688 191.519 36.232 191.279 35.656 190.919C34.552 190.175 33.616 189.311 32.848 188.327C32.08 187.343 31.612 186.383 31.444 185.447C31.396 185.111 31.372 184.799 31.372 184.511C31.372 183.767 31.444 183.215 31.588 182.855C31.804 182.327 32.284 181.835 33.028 181.379C33.748 180.923 34.312 180.755 34.72 180.875C35.464 181.019 36.052 181.199 36.484 181.415C36.892 181.631 37.276 181.907 37.636 182.243C38.116 182.795 39.184 183.491 40.84 184.331C42.496 185.171 44.176 185.891 45.88 186.491C47.176 186.947 48.304 187.175 49.264 187.175C49.672 187.175 49.876 187.115 49.876 186.995C49.876 186.923 49.912 186.791 49.984 186.599C50.056 186.407 50.092 186.287 50.092 186.239C50.188 186.167 50.284 186.131 50.38 186.131C50.476 186.131 50.68 186.191 50.992 186.311C51.328 186.431 51.748 186.719 52.252 187.175C52.756 187.631 52.996 187.943 52.972 188.111ZM39.256 189.731C39.52 189.491 39.652 189.155 39.652 188.723C39.652 188.075 39.376 187.355 38.824 186.563C38.248 185.771 37.516 185.087 36.628 184.511L35.728 183.827C35.368 183.539 35.164 183.371 35.116 183.323C34.708 182.963 34.396 182.783 34.18 182.783C34.012 182.783 33.856 182.855 33.712 182.999C33.424 183.167 33.28 183.443 33.28 183.827C33.28 184.067 33.376 184.475 33.568 185.051C33.64 185.411 33.76 185.759 33.928 186.095C34.072 186.407 34.312 186.827 34.648 187.355C34.792 187.499 34.84 187.691 34.792 187.931C34.792 187.955 34.804 187.991 34.828 188.039C34.852 188.063 34.9 188.075 34.972 188.075C34.996 188.051 35.044 188.039 35.116 188.039C35.332 188.039 35.56 188.195 35.8 188.507C36.256 188.963 36.748 189.311 37.276 189.551C37.78 189.791 38.236 189.911 38.644 189.911C38.884 189.911 39.088 189.851 39.256 189.731ZM45.592 176.764C45.592 177.244 45.532 177.664 45.412 178.024C45.412 178.36 45.376 178.6 45.304 178.744C45.232 178.864 45.1 178.972 44.908 179.068C44.692 179.212 44.524 179.284 44.404 179.284C44.26 179.284 44.152 179.152 44.08 178.888C43.984 178.624 43.9 178.156 43.828 177.484C43.66 176.764 43.54 175.408 43.468 173.416C43.372 171.424 43.324 169.756 43.324 168.412C43.324 167.788 43.36 167.368 43.432 167.152C43.48 166.936 43.624 166.696 43.864 166.432C44.152 166.144 44.428 166 44.692 166C44.908 166 45.064 166.096 45.16 166.288C45.256 166.456 45.28 166.696 45.232 167.008L45.412 169.276C45.436 170.068 45.472 171.244 45.52 172.804C45.568 174.34 45.592 175.66 45.592 176.764ZM51.172 161.381C51.1 161.549 50.932 161.789 50.668 162.101C50.404 162.413 50.164 162.617 49.948 162.713C49.924 162.737 49.852 162.749 49.732 162.749C49.564 162.749 49.372 162.713 49.156 162.641C48.94 162.569 48.832 162.497 48.832 162.425C48.904 162.353 48.724 162.161 48.292 161.849C47.836 161.513 47.548 161.333 47.428 161.309C47.332 161.285 47.248 161.213 47.176 161.093C47.08 160.949 47.02 160.853 46.996 160.805C46.804 160.685 46.6 160.517 46.384 160.301C46.144 160.061 45.976 159.905 45.88 159.833C45.76 159.737 45.568 159.557 45.304 159.293C45.016 159.029 44.764 158.789 44.548 158.573C44.02 157.997 43.612 157.577 43.324 157.313C41.98 156.065 41.2 155.417 40.984 155.369C40.96 155.345 40.912 155.297 40.84 155.225C40.768 155.153 40.696 155.057 40.624 154.937C40.384 154.577 40.108 154.241 39.796 153.929C39.628 153.905 39.364 153.773 39.004 153.533C38.644 153.293 38.344 153.053 38.104 152.813C37.84 152.621 37.552 152.453 37.24 152.309C36.904 152.141 36.616 152.021 36.376 151.949L36.052 151.877C35.956 151.877 35.884 151.937 35.836 152.057C35.764 152.177 35.704 152.321 35.656 152.489C35.608 152.633 35.572 152.753 35.548 152.849C35.38 153.401 35.296 153.881 35.296 154.289C35.296 155.177 35.62 156.089 36.268 157.025C36.34 157.361 36.424 157.625 36.52 157.817C36.664 158.249 36.724 158.525 36.7 158.645C36.676 158.717 36.568 158.825 36.376 158.969C36.184 159.113 36.028 159.245 35.908 159.365L35.152 159.725L34.54 158.609C33.556 157.121 33.064 155.825 33.064 154.721C33.064 154.337 33.112 154.001 33.208 153.713C33.208 153.497 33.232 153.281 33.28 153.065C33.328 152.849 33.364 152.717 33.388 152.669C33.364 152.381 33.592 152.009 34.072 151.553C34.552 151.073 35.044 150.713 35.548 150.473C35.98 150.185 36.424 150.041 36.88 150.041C37.6 150.041 38.524 150.425 39.652 151.193C40.276 151.721 41.176 152.525 42.352 153.605C43.528 154.685 44.212 155.345 44.404 155.585C44.548 155.873 45.244 156.569 46.492 157.673C47.74 158.777 48.364 159.281 48.364 159.185L48.436 159.185C48.292 159.185 48.112 158.441 47.896 156.953C47.656 155.441 47.536 154.277 47.536 153.461C47.536 153.197 47.56 153.017 47.608 152.921C47.704 152.873 47.752 152.837 47.752 152.813C47.728 152.765 47.704 152.741 47.68 152.741C47.584 152.717 47.536 152.549 47.536 152.237C47.536 151.685 47.644 151.037 47.86 150.293C47.884 150.221 47.92 150.101 47.968 149.933C48.016 149.741 48.064 149.609 48.112 149.537C48.16 149.465 48.208 149.429 48.256 149.429C48.28 149.405 48.352 149.369 48.472 149.321C48.568 149.249 48.688 149.153 48.832 149.033C49 148.817 49.144 148.709 49.264 148.709C49.432 148.709 49.516 148.913 49.516 149.321C49.516 149.609 49.456 150.089 49.336 150.761C49.336 151.385 49.372 151.901 49.444 152.309C49.492 152.381 49.528 152.609 49.552 152.993C49.552 153.353 49.552 153.629 49.552 153.821C49.528 153.941 49.516 154.109 49.516 154.325C49.516 154.877 49.684 155.657 50.02 156.665C50.236 157.193 50.5 158.057 50.812 159.257C51.124 160.457 51.244 161.165 51.172 161.381ZM51.244 140.818C51.244 141.082 51.076 141.526 50.74 142.15C50.404 142.774 50.08 143.266 49.768 143.626C49.12 144.298 48.304 144.838 47.32 145.246C46.312 145.63 45.292 145.822 44.26 145.822C44.044 145.822 43.696 145.798 43.216 145.75C41.704 145.486 40.204 144.922 38.716 144.058C37.204 143.17 35.944 142.138 34.936 140.962C34.384 140.338 33.964 139.774 33.676 139.27C33.364 138.742 33.124 138.13 32.956 137.434C32.86 137.098 32.812 136.57 32.812 135.85C32.812 135.394 32.908 134.926 33.1 134.446C33.292 133.942 33.532 133.522 33.82 133.186C34.084 132.85 34.336 132.682 34.576 132.682C34.792 132.682 34.924 132.706 34.972 132.754C35.02 132.778 35.008 132.874 34.936 133.042L34.936 133.402L35.98 133.042C36.196 132.946 36.46 132.862 36.772 132.79C37.084 132.718 37.372 132.682 37.636 132.682C38.068 132.682 38.908 132.814 40.156 133.078C41.38 133.342 42.208 133.57 42.64 133.762C42.832 133.858 43.084 133.906 43.396 133.906L45.376 134.806C45.448 134.902 45.532 134.974 45.628 135.022C45.724 135.07 45.808 135.058 45.88 134.986C45.976 134.986 46.252 135.118 46.708 135.382C47.14 135.622 47.356 135.778 47.356 135.85C47.356 135.874 47.368 135.91 47.392 135.958C47.392 136.006 47.428 136.03 47.5 136.03C47.596 136.03 47.848 136.198 48.256 136.534C48.664 136.846 49.072 137.206 49.48 137.614C49.864 137.974 50.26 138.514 50.668 139.234C51.052 139.93 51.244 140.458 51.244 140.818ZM48.976 140.926C48.976 140.35 48.808 139.894 48.472 139.558C48.16 139.102 47.68 138.598 47.032 138.046C46.36 137.47 45.724 137.05 45.124 136.786C44.788 136.546 44.44 136.354 44.08 136.21C43.72 136.042 43.012 135.778 41.956 135.418C41.716 135.25 41.416 135.13 41.056 135.058C40.672 134.962 40.324 134.914 40.012 134.914C38.956 134.914 38.212 134.854 37.78 134.734C37.108 134.734 36.688 134.746 36.52 134.77C36.328 134.794 36.136 134.89 35.944 135.058C35.728 135.322 35.62 135.61 35.62 135.922C35.62 136.09 35.716 136.402 35.908 136.858C36.076 137.314 36.22 137.638 36.34 137.83C36.388 137.974 36.412 138.082 36.412 138.154C36.412 138.298 36.388 138.43 36.34 138.55C36.268 138.646 36.184 138.694 36.088 138.694C35.92 138.694 35.836 138.766 35.836 138.91C35.836 139.102 35.98 139.366 36.268 139.702C36.556 140.038 36.928 140.398 37.384 140.782C37.768 141.166 38.2 141.526 38.68 141.862C39.136 142.174 39.412 142.33 39.508 142.33C39.58 142.33 39.712 142.378 39.904 142.474C40.096 142.546 40.252 142.606 40.372 142.654C40.636 142.822 41.104 143.05 41.776 143.338C42.424 143.626 42.892 143.806 43.18 143.878L45.124 143.878C45.724 143.878 46.192 143.842 46.528 143.77C46.864 143.698 47.212 143.566 47.572 143.374C47.74 143.278 47.944 143.122 48.184 142.906C48.424 142.69 48.58 142.558 48.652 142.51C48.82 142.342 48.94 142.21 49.012 142.114C49.06 141.994 49.084 141.85 49.084 141.682C49.084 141.49 49.048 141.238 48.976 140.926ZM52.36 123.135C52.528 123.351 52.336 123.735 51.784 124.287C51.664 124.431 51.52 124.503 51.352 124.503C51.232 124.503 50.728 124.407 49.84 124.215C49.504 124.167 49.264 124.119 49.12 124.071C48.544 123.951 47.932 123.807 47.284 123.639C46.612 123.447 46.18 123.327 45.988 123.279C45.892 123.087 44.716 122.655 42.46 121.983C41.164 121.623 39.832 121.215 38.464 120.759C37.792 120.543 37.204 120.375 36.7 120.255C36.196 120.135 35.872 120.051 35.728 120.003C35.848 120.219 36.124 120.687 36.556 121.407C36.964 122.103 37.408 122.763 37.888 123.387C37.912 123.435 38.236 123.891 38.86 124.755C38.98 124.947 39.16 125.211 39.4 125.547C39.64 125.859 39.82 126.123 39.94 126.339C40.228 126.699 40.456 126.999 40.624 127.239C40.768 127.455 40.84 127.611 40.84 127.707C40.84 127.755 40.792 127.875 40.696 128.067C40.288 128.523 39.892 128.751 39.508 128.751C39.364 128.751 39.22 128.715 39.076 128.643C39.052 128.547 38.764 128.115 38.212 127.347C37.588 126.483 37.252 125.991 37.204 125.871C37.204 125.823 37.12 125.691 36.952 125.475C36.76 125.259 36.604 125.055 36.484 124.863C36.388 124.791 35.968 124.227 35.224 123.171L33.82 121.263C32.572 119.247 31.972 118.143 32.02 117.951C32.044 117.831 32.164 117.639 32.38 117.375C32.572 117.087 32.764 116.931 32.956 116.907C33.052 116.859 33.136 116.835 33.208 116.835C33.376 116.835 33.676 116.931 34.108 117.123C34.564 117.339 35.62 117.735 37.276 118.311C38.932 118.863 40.24 119.283 41.2 119.571C41.824 119.739 42.592 119.991 43.504 120.327C43.72 120.399 44.032 120.507 44.44 120.651C44.824 120.771 45.22 120.879 45.628 120.975C46.156 121.191 46.888 121.431 47.824 121.695C48.76 121.959 49.552 122.163 50.2 122.307L51.28 122.667C51.928 122.883 52.288 123.039 52.36 123.135ZM51.244 108.404C51.244 108.668 51.076 109.112 50.74 109.736C50.404 110.36 50.08 110.852 49.768 111.212C49.12 111.884 48.304 112.424 47.32 112.832C46.312 113.216 45.292 113.408 44.26 113.408C44.044 113.408 43.696 113.384 43.216 113.336C41.704 113.072 40.204 112.508 38.716 111.644C37.204 110.756 35.944 109.724 34.936 108.548C34.384 107.924 33.964 107.36 33.676 106.856C33.364 106.328 33.124 105.716 32.956 105.02C32.86 104.684 32.812 104.156 32.812 103.436C32.812 102.98 32.908 102.512 33.1 102.032C33.292 101.528 33.532 101.108 33.82 100.772C34.084 100.436 34.336 100.268 34.576 100.268C34.792 100.268 34.924 100.292 34.972 100.34C35.02 100.364 35.008 100.46 34.936 100.628L34.936 100.988L35.98 100.628C36.196 100.532 36.46 100.448 36.772 100.376C37.084 100.304 37.372 100.268 37.636 100.268C38.068 100.268 38.908 100.4 40.156 100.664C41.38 100.928 42.208 101.156 42.64 101.348C42.832 101.444 43.084 101.492 43.396 101.492L45.376 102.392C45.448 102.488 45.532 102.56 45.628 102.608C45.724 102.656 45.808 102.644 45.88 102.572C45.976 102.572 46.252 102.704 46.708 102.968C47.14 103.208 47.356 103.364 47.356 103.436C47.356 103.46 47.368 103.496 47.392 103.544C47.392 103.592 47.428 103.616 47.5 103.616C47.596 103.616 47.848 103.784 48.256 104.12C48.664 104.432 49.072 104.792 49.48 105.2C49.864 105.56 50.26 106.1 50.668 106.82C51.052 107.516 51.244 108.044 51.244 108.404ZM48.976 108.512C48.976 107.936 48.808 107.48 48.472 107.144C48.16 106.688 47.68 106.184 47.032 105.632C46.36 105.056 45.724 104.636 45.124 104.372C44.788 104.132 44.44 103.94 44.08 103.796C43.72 103.628 43.012 103.364 41.956 103.004C41.716 102.836 41.416 102.716 41.056 102.644C40.672 102.548 40.324 102.5 40.012 102.5C38.956 102.5 38.212 102.44 37.78 102.32C37.108 102.32 36.688 102.332 36.52 102.356C36.328 102.38 36.136 102.476 35.944 102.644C35.728 102.908 35.62 103.196 35.62 103.508C35.62 103.676 35.716 103.988 35.908 104.444C36.076 104.9 36.22 105.224 36.34 105.416C36.388 105.56 36.412 105.668 36.412 105.74C36.412 105.884 36.388 106.016 36.34 106.136C36.268 106.232 36.184 106.28 36.088 106.28C35.92 106.28 35.836 106.352 35.836 106.496C35.836 106.688 35.98 106.952 36.268 107.288C36.556 107.624 36.928 107.984 37.384 108.368C37.768 108.752 38.2 109.112 38.68 109.448C39.136 109.76 39.412 109.916 39.508 109.916C39.58 109.916 39.712 109.964 39.904 110.06C40.096 110.132 40.252 110.192 40.372 110.24C40.636 110.408 41.104 110.636 41.776 110.924C42.424 111.212 42.892 111.392 43.18 111.464L45.124 111.464C45.724 111.464 46.192 111.428 46.528 111.356C46.864 111.284 47.212 111.152 47.572 110.96C47.74 110.864 47.944 110.708 48.184 110.492C48.424 110.276 48.58 110.144 48.652 110.096C48.82 109.928 48.94 109.796 49.012 109.7C49.06 109.58 49.084 109.436 49.084 109.268C49.084 109.076 49.048 108.824 48.976 108.512Z" fill="black"/>
</svg>
