<svg width="287" height="320" viewBox="0 0 287 320" fill="none" xmlns="http://www.w3.org/2000/svg">
<rect x="225.284" y="3.52208" width="75" height="345" rx="2.5" transform="rotate(40 225.284 3.52208)" fill="#F9E5CC" stroke="black" stroke-width="5"/>
<rect x="196.358" y="37.9942" width="75" height="255" rx="2.5" transform="rotate(40 196.358 37.9942)" fill="#97466F" stroke="black" stroke-width="5"/>
<path d="M106.145 216.559C105.982 216.641 105.699 216.717 105.297 216.786C104.894 216.856 104.579 216.858 104.352 216.792C104.318 216.795 104.255 216.758 104.163 216.681C104.034 216.573 103.91 216.422 103.791 216.228C103.672 216.034 103.636 215.91 103.682 215.854C103.783 215.846 103.769 215.583 103.638 215.066C103.505 214.516 103.4 214.193 103.324 214.097C103.266 214.017 103.248 213.908 103.269 213.77C103.289 213.598 103.304 213.485 103.317 213.433C103.247 213.218 103.198 212.958 103.172 212.654C103.142 212.316 103.114 212.088 103.087 211.971C103.056 211.821 103.025 211.559 102.992 211.187C102.942 210.8 102.903 210.454 102.876 210.15C102.842 209.369 102.799 208.785 102.748 208.398C102.521 206.578 102.34 205.58 102.205 205.405C102.202 205.371 102.197 205.303 102.188 205.202C102.179 205.1 102.185 204.98 102.207 204.842C102.255 204.412 102.259 203.977 102.221 203.538C102.108 203.412 101.99 203.141 101.869 202.725C101.747 202.31 101.672 201.934 101.642 201.595C101.563 201.279 101.451 200.965 101.304 200.654C101.155 200.309 101.011 200.032 100.874 199.823L100.672 199.559C100.598 199.498 100.505 199.497 100.391 199.558C100.258 199.604 100.12 199.676 99.9752 199.774C99.8459 199.853 99.7412 199.922 99.6611 199.98C99.1775 200.295 98.8047 200.609 98.5424 200.921C97.9716 201.601 97.6336 202.508 97.5283 203.642C97.3675 203.945 97.2622 204.202 97.2123 204.41C97.0449 204.834 96.9135 205.084 96.8179 205.16C96.7533 205.2 96.6011 205.214 96.3615 205.2C96.1218 205.187 95.9175 205.188 95.7484 205.203L94.9379 204.993L95.1864 203.744C95.3891 201.972 95.8453 200.663 96.5549 199.817C96.8017 199.523 97.0545 199.297 97.3131 199.138C97.452 198.972 97.6092 198.822 97.7848 198.688C97.9604 198.553 98.0729 198.475 98.1221 198.454C98.2888 198.218 98.7026 198.079 99.3634 198.038C100.04 197.979 100.648 198.02 101.188 198.16C101.704 198.217 102.137 198.392 102.486 198.685C103.038 199.148 103.499 200.036 103.869 201.349C104.008 202.155 104.181 203.349 104.387 204.933C104.594 206.516 104.694 207.461 104.686 207.768C104.612 208.082 104.697 209.062 104.944 210.71C105.19 212.358 105.344 213.145 105.406 213.072L105.461 213.118C105.351 213.025 105.691 212.34 106.482 211.061C107.27 209.748 107.927 208.78 108.451 208.155C108.621 207.952 108.755 207.83 108.853 207.787C108.958 207.812 109.018 207.815 109.033 207.797C109.045 207.745 109.043 207.711 109.024 207.696C108.966 207.615 109.037 207.456 109.238 207.217C109.593 206.794 110.092 206.367 110.736 205.936C110.8 205.896 110.905 205.827 111.05 205.73C111.21 205.613 111.332 205.543 111.415 205.519C111.498 205.495 111.558 205.498 111.594 205.529C111.628 205.526 111.706 205.544 111.829 205.585C111.949 205.591 112.103 205.595 112.29 205.596C112.558 205.538 112.737 205.548 112.829 205.625C112.958 205.733 112.891 205.943 112.629 206.256C112.444 206.476 112.089 206.806 111.565 207.243C111.164 207.721 110.86 208.14 110.653 208.499C110.644 208.585 110.525 208.782 110.296 209.092C110.065 209.368 109.887 209.579 109.764 209.726C109.668 209.803 109.551 209.924 109.412 210.089C109.058 210.512 108.685 211.217 108.294 212.206C108.12 212.749 107.767 213.581 107.235 214.7C106.703 215.82 106.339 216.44 106.145 216.559ZM119.418 200.853C119.249 201.055 118.835 201.287 118.176 201.549C117.518 201.811 116.953 201.98 116.483 202.055C115.554 202.153 114.582 202.043 113.566 201.723C112.547 201.369 111.642 200.86 110.852 200.197C110.686 200.058 110.435 199.816 110.098 199.471C109.11 198.297 108.323 196.9 107.739 195.282C107.151 193.63 106.849 192.029 106.833 190.481C106.811 189.648 106.852 188.946 106.955 188.375C107.056 187.77 107.265 187.146 107.584 186.505C107.726 186.186 108.029 185.751 108.492 185.199C108.785 184.85 109.159 184.553 109.615 184.309C110.086 184.046 110.54 183.879 110.976 183.807C111.395 183.719 111.696 183.752 111.88 183.906C112.045 184.045 112.131 184.148 112.137 184.216C112.158 184.265 112.087 184.331 111.924 184.414L111.693 184.689L112.724 185.085C112.951 185.15 113.207 185.255 113.492 185.401C113.778 185.546 114.021 185.704 114.224 185.873C114.555 186.151 115.113 186.792 115.9 187.796C116.668 188.785 117.155 189.492 117.363 189.917C117.448 190.114 117.61 190.313 117.849 190.513L118.788 192.476C118.781 192.595 118.799 192.705 118.842 192.803C118.884 192.901 118.957 192.946 119.058 192.937C119.132 192.999 119.258 193.278 119.438 193.773C119.614 194.235 119.68 194.493 119.633 194.548C119.618 194.566 119.604 194.602 119.591 194.654C119.561 194.691 119.573 194.732 119.628 194.778C119.701 194.84 119.786 195.131 119.883 195.651C119.995 196.152 120.076 196.69 120.126 197.265C120.189 197.787 120.145 198.455 119.995 199.269C119.842 200.049 119.65 200.577 119.418 200.853ZM117.611 199.478C117.982 199.037 118.146 198.579 118.105 198.106C118.159 197.556 118.115 196.861 117.974 196.022C117.829 195.149 117.612 194.418 117.322 193.83C117.219 193.431 117.076 193.06 116.892 192.718C116.725 192.358 116.352 191.701 115.774 190.746C115.698 190.463 115.546 190.178 115.316 189.892C115.084 189.571 114.848 189.311 114.609 189.11C113.8 188.432 113.269 187.907 113.015 187.538C112.5 187.106 112.171 186.845 112.027 186.755C111.864 186.65 111.655 186.601 111.4 186.606C111.065 186.669 110.797 186.82 110.597 187.059C110.489 187.188 110.362 187.489 110.216 187.962C110.051 188.419 109.953 188.76 109.922 188.984C109.866 189.125 109.815 189.223 109.769 189.278C109.676 189.389 109.573 189.474 109.459 189.535C109.342 189.563 109.247 189.545 109.173 189.484C109.045 189.376 108.934 189.377 108.842 189.487C108.718 189.634 108.659 189.929 108.663 190.372C108.668 190.814 108.722 191.329 108.824 191.916C108.871 192.457 108.971 193.011 109.123 193.577C109.271 194.109 109.383 194.406 109.456 194.467C109.511 194.514 109.582 194.635 109.667 194.832C109.768 195.011 109.849 195.157 109.91 195.271C110.004 195.569 110.216 196.045 110.546 196.697C110.857 197.335 111.1 197.773 111.274 198.014L112.763 199.263C113.223 199.649 113.604 199.922 113.908 200.083C114.212 200.244 114.563 200.366 114.962 200.451C115.153 200.485 115.409 200.497 115.732 200.485C116.055 200.474 116.259 200.473 116.345 200.483C116.582 200.462 116.759 200.438 116.875 200.411C116.989 200.35 117.1 200.255 117.208 200.126C117.332 199.979 117.466 199.763 117.611 199.478ZM129.836 188.438C129.666 188.64 129.252 188.872 128.594 189.134C127.935 189.396 127.371 189.565 126.9 189.64C125.972 189.738 125 189.627 123.984 189.307C122.965 188.954 122.06 188.445 121.269 187.782C121.104 187.643 120.853 187.401 120.516 187.055C119.527 185.881 118.741 184.485 118.156 182.867C117.569 181.215 117.267 179.614 117.251 178.065C117.229 177.232 117.27 176.53 117.373 175.959C117.474 175.354 117.683 174.731 118.002 174.09C118.144 173.771 118.447 173.336 118.91 172.784C119.203 172.435 119.577 172.138 120.033 171.894C120.504 171.631 120.958 171.463 121.394 171.391C121.812 171.304 122.113 171.337 122.297 171.491C122.463 171.63 122.548 171.733 122.554 171.801C122.576 171.85 122.505 171.916 122.342 171.998L122.11 172.274L123.141 172.669C123.369 172.735 123.625 172.84 123.91 172.985C124.195 173.131 124.439 173.288 124.641 173.458C124.972 173.736 125.531 174.377 126.317 175.381C127.085 176.37 127.573 177.077 127.78 177.502C127.866 177.699 128.028 177.898 128.267 178.098L129.205 180.06C129.199 180.18 129.217 180.289 129.259 180.388C129.302 180.486 129.374 180.531 129.476 180.522C129.549 180.584 129.676 180.862 129.855 181.358C130.032 181.819 130.097 182.078 130.051 182.133C130.036 182.151 130.022 182.186 130.009 182.239C129.978 182.275 129.99 182.317 130.046 182.363C130.119 182.425 130.204 182.716 130.301 183.235C130.413 183.736 130.494 184.274 130.544 184.849C130.607 185.372 130.563 186.04 130.413 186.854C130.26 187.634 130.067 188.162 129.836 188.438ZM128.029 187.062C128.399 186.621 128.564 186.164 128.522 185.691C128.577 185.141 128.533 184.446 128.391 183.607C128.247 182.733 128.029 182.003 127.739 181.415C127.636 181.015 127.493 180.644 127.31 180.303C127.142 179.943 126.77 179.285 126.192 178.331C126.116 178.048 125.963 177.763 125.734 177.476C125.502 177.156 125.266 176.896 125.027 176.695C124.218 176.016 123.686 175.492 123.433 175.122C122.918 174.691 122.588 174.43 122.444 174.34C122.282 174.235 122.073 174.185 121.818 174.191C121.483 174.254 121.215 174.405 121.014 174.644C120.906 174.773 120.779 175.074 120.633 175.546C120.469 176.004 120.371 176.344 120.339 176.569C120.284 176.71 120.233 176.808 120.186 176.863C120.094 176.973 119.991 177.059 119.877 177.12C119.76 177.147 119.665 177.13 119.591 177.068C119.462 176.96 119.352 176.962 119.259 177.072C119.136 177.219 119.076 177.514 119.081 177.956C119.086 178.399 119.139 178.914 119.242 179.501C119.289 180.042 119.389 180.595 119.54 181.161C119.689 181.693 119.8 181.99 119.874 182.052C119.929 182.098 119.999 182.22 120.085 182.417C120.185 182.596 120.266 182.742 120.327 182.856C120.422 183.154 120.634 183.63 120.963 184.282C121.275 184.919 121.517 185.358 121.692 185.598L123.181 186.848C123.64 187.233 124.022 187.507 124.326 187.668C124.629 187.828 124.981 187.951 125.38 188.035C125.57 188.07 125.827 188.081 126.15 188.07C126.472 188.059 126.677 188.058 126.763 188.068C126.999 188.047 127.176 188.023 127.293 187.996C127.407 187.935 127.518 187.84 127.626 187.711C127.749 187.564 127.884 187.348 128.029 187.062ZM142.057 175.609C142.047 175.882 141.653 176.053 140.876 176.121C140.691 176.154 140.534 176.117 140.406 176.009C140.314 175.932 139.99 175.534 139.433 174.816C139.206 174.564 139.053 174.373 138.974 174.243C138.61 173.781 138.233 173.277 137.845 172.732C137.454 172.153 137.2 171.784 137.084 171.623C137.133 171.415 136.51 170.328 135.214 168.363C134.453 167.254 133.694 166.085 132.94 164.857C132.564 164.259 132.221 163.753 131.912 163.337C131.603 162.921 131.409 162.648 131.33 162.519C131.283 162.761 131.193 163.297 131.061 164.127C130.927 164.922 130.843 165.713 130.809 166.5C130.797 166.552 130.752 167.109 130.674 168.172C130.643 168.397 130.611 168.714 130.579 169.126C130.562 169.519 130.53 169.837 130.484 170.08C130.473 170.541 130.455 170.917 130.429 171.209C130.4 171.467 130.355 171.633 130.294 171.706C130.263 171.743 130.149 171.804 129.952 171.89C129.346 171.977 128.896 171.897 128.602 171.65C128.492 171.557 128.405 171.437 128.341 171.29C128.384 171.201 128.441 170.685 128.512 169.741C128.589 168.678 128.648 168.086 128.688 167.963C128.719 167.926 128.74 167.771 128.75 167.497C128.742 167.209 128.753 166.952 128.785 166.728C128.758 166.611 128.798 165.909 128.907 164.622L129.058 162.258C129.398 159.911 129.648 158.68 129.808 158.563C129.904 158.487 130.119 158.417 130.454 158.354C130.786 158.256 131.034 158.26 131.196 158.365C131.301 158.39 131.38 158.426 131.436 158.472C131.564 158.58 131.732 158.847 131.94 159.271C132.15 159.73 132.705 160.712 133.603 162.218C134.517 163.705 135.249 164.868 135.799 165.705C136.169 166.235 136.596 166.922 137.078 167.765C137.197 167.959 137.367 168.243 137.587 168.615C137.804 168.954 138.038 169.291 138.289 169.627C138.554 170.132 138.961 170.786 139.508 171.59C140.055 172.394 140.531 173.059 140.935 173.586L141.531 174.556C141.888 175.138 142.064 175.489 142.057 175.609ZM143.981 162.787C143.673 163.155 143.357 163.438 143.034 163.636C142.818 163.894 142.636 164.054 142.488 164.118C142.356 164.164 142.185 164.162 141.976 164.112C141.718 164.084 141.543 164.031 141.451 163.954C141.341 163.861 141.343 163.691 141.458 163.442C141.554 163.178 141.79 162.766 142.167 162.205C142.501 161.545 143.281 160.429 144.506 158.857C145.713 157.269 146.749 155.961 147.613 154.931C148.014 154.453 148.311 154.154 148.505 154.035C148.681 153.901 148.945 153.809 149.299 153.761C149.705 153.726 150.009 153.793 150.211 153.963C150.376 154.101 150.434 154.275 150.384 154.484C150.35 154.674 150.214 154.874 149.977 155.082L148.657 156.935C148.166 157.557 147.438 158.481 146.472 159.707C145.521 160.915 144.691 161.941 143.981 162.787ZM158.143 154.59C157.98 154.672 157.697 154.748 157.295 154.818C156.892 154.887 156.577 154.889 156.35 154.824C156.316 154.827 156.253 154.789 156.161 154.712C156.032 154.604 155.908 154.453 155.789 154.259C155.67 154.065 155.634 153.941 155.68 153.886C155.781 153.877 155.767 153.614 155.636 153.097C155.503 152.547 155.398 152.224 155.322 152.128C155.264 152.048 155.246 151.939 155.267 151.801C155.287 151.629 155.302 151.517 155.315 151.464C155.245 151.249 155.196 150.989 155.17 150.685C155.14 150.347 155.112 150.119 155.085 150.003C155.054 149.852 155.023 149.591 154.99 149.219C154.94 148.831 154.901 148.485 154.874 148.181C154.84 147.4 154.797 146.816 154.746 146.429C154.519 144.609 154.338 143.611 154.203 143.436C154.2 143.402 154.195 143.334 154.186 143.233C154.177 143.132 154.183 143.012 154.205 142.873C154.253 142.443 154.257 142.009 154.219 141.569C154.106 141.443 153.988 141.172 153.867 140.757C153.745 140.341 153.67 139.965 153.64 139.627C153.561 139.31 153.449 138.996 153.302 138.685C153.153 138.34 153.009 138.063 152.872 137.854L152.67 137.591C152.596 137.529 152.503 137.529 152.389 137.59C152.256 137.635 152.118 137.707 151.973 137.805C151.844 137.884 151.739 137.953 151.659 138.011C151.176 138.326 150.803 138.64 150.54 138.952C149.97 139.633 149.632 140.539 149.526 141.673C149.366 141.977 149.26 142.233 149.21 142.442C149.043 142.865 148.911 143.115 148.816 143.192C148.751 143.231 148.599 143.245 148.359 143.232C148.12 143.219 147.915 143.219 147.746 143.234L146.936 143.024L147.184 141.776C147.387 140.003 147.843 138.694 148.553 137.849C148.8 137.554 149.052 137.328 149.311 137.169C149.45 137.003 149.607 136.853 149.783 136.719C149.958 136.584 150.071 136.506 150.12 136.485C150.287 136.249 150.701 136.11 151.361 136.07C152.038 136.01 152.646 136.051 153.186 136.191C153.702 136.248 154.135 136.423 154.484 136.716C155.036 137.179 155.497 138.067 155.867 139.381C156.006 140.186 156.179 141.381 156.385 142.964C156.592 144.547 156.692 145.492 156.684 145.8C156.61 146.113 156.695 147.093 156.942 148.741C157.188 150.389 157.342 151.176 157.404 151.103L157.459 151.149C157.349 151.057 157.689 150.371 158.48 149.092C159.268 147.78 159.925 146.811 160.449 146.186C160.619 145.984 160.753 145.861 160.851 145.818C160.956 145.843 161.016 145.847 161.031 145.828C161.043 145.776 161.041 145.742 161.022 145.727C160.964 145.647 161.035 145.487 161.236 145.248C161.591 144.825 162.09 144.398 162.734 143.967C162.798 143.927 162.903 143.859 163.048 143.761C163.208 143.645 163.33 143.574 163.413 143.55C163.496 143.526 163.556 143.529 163.592 143.56C163.626 143.557 163.704 143.576 163.827 143.616C163.947 143.623 164.101 143.626 164.288 143.627C164.556 143.569 164.735 143.579 164.827 143.656C164.956 143.764 164.889 143.975 164.627 144.287C164.442 144.508 164.087 144.837 163.563 145.274C163.162 145.752 162.858 146.171 162.651 146.53C162.642 146.616 162.523 146.814 162.294 147.123C162.063 147.399 161.885 147.61 161.762 147.757C161.666 147.834 161.549 147.955 161.41 148.12C161.056 148.543 160.683 149.249 160.292 150.237C160.118 150.78 159.765 151.612 159.233 152.732C158.701 153.851 158.337 154.471 158.143 154.59ZM171.416 138.884C171.247 139.086 170.833 139.318 170.174 139.58C169.516 139.843 168.951 140.011 168.481 140.086C167.552 140.185 166.58 140.074 165.564 139.754C164.545 139.4 163.64 138.892 162.85 138.228C162.684 138.089 162.433 137.847 162.096 137.502C161.108 136.328 160.321 134.932 159.737 133.313C159.149 131.661 158.847 130.061 158.831 128.512C158.809 127.679 158.85 126.977 158.953 126.406C159.054 125.801 159.263 125.178 159.582 124.536C159.725 124.217 160.027 123.782 160.49 123.231C160.783 122.881 161.157 122.584 161.613 122.34C162.084 122.077 162.538 121.91 162.974 121.838C163.393 121.75 163.694 121.783 163.878 121.938C164.043 122.076 164.129 122.18 164.135 122.247C164.156 122.297 164.085 122.362 163.922 122.445L163.691 122.721L164.722 123.116C164.949 123.181 165.205 123.286 165.49 123.432C165.776 123.577 166.019 123.735 166.222 123.904C166.553 124.182 167.111 124.823 167.898 125.828C168.666 126.817 169.153 127.524 169.361 127.948C169.446 128.145 169.608 128.344 169.847 128.545L170.786 130.507C170.779 130.627 170.797 130.736 170.84 130.834C170.882 130.933 170.955 130.977 171.056 130.969C171.13 131.03 171.256 131.309 171.436 131.804C171.612 132.266 171.678 132.524 171.631 132.579C171.616 132.598 171.602 132.633 171.589 132.685C171.559 132.722 171.571 132.763 171.626 132.81C171.699 132.871 171.784 133.162 171.881 133.682C171.993 134.183 172.074 134.721 172.124 135.296C172.187 135.818 172.143 136.487 171.993 137.3C171.84 138.08 171.648 138.608 171.416 138.884ZM169.609 137.509C169.98 137.068 170.144 136.61 170.103 136.137C170.157 135.587 170.113 134.893 169.972 134.053C169.827 133.18 169.61 132.449 169.32 131.862C169.217 131.462 169.074 131.091 168.89 130.749C168.723 130.389 168.35 129.732 167.772 128.777C167.696 128.494 167.544 128.21 167.314 127.923C167.082 127.603 166.846 127.342 166.607 127.142C165.798 126.463 165.267 125.939 165.013 125.569C164.498 125.137 164.169 124.876 164.025 124.787C163.862 124.682 163.653 124.632 163.398 124.637C163.063 124.7 162.795 124.852 162.595 125.091C162.487 125.219 162.36 125.52 162.214 125.993C162.049 126.45 161.951 126.791 161.92 127.015C161.864 127.156 161.813 127.254 161.767 127.31C161.674 127.42 161.571 127.506 161.457 127.567C161.34 127.594 161.245 127.577 161.171 127.515C161.043 127.407 160.932 127.408 160.84 127.518C160.716 127.665 160.657 127.96 160.661 128.403C160.666 128.845 160.72 129.36 160.822 129.947C160.869 130.488 160.969 131.042 161.121 131.608C161.269 132.14 161.381 132.437 161.454 132.499C161.509 132.545 161.58 132.666 161.665 132.863C161.766 133.042 161.847 133.188 161.908 133.302C162.002 133.601 162.214 134.076 162.544 134.729C162.855 135.366 163.098 135.804 163.272 136.045L164.761 137.294C165.221 137.68 165.602 137.953 165.906 138.114C166.21 138.275 166.561 138.397 166.96 138.482C167.151 138.516 167.407 138.528 167.73 138.517C168.053 138.505 168.257 138.505 168.343 138.514C168.58 138.493 168.757 138.469 168.873 138.442C168.987 138.381 169.098 138.286 169.206 138.158C169.33 138.01 169.464 137.794 169.609 137.509ZM181.834 126.469C181.664 126.671 181.25 126.903 180.592 127.165C179.933 127.427 179.369 127.596 178.898 127.671C177.97 127.769 176.998 127.658 175.982 127.339C174.963 126.985 174.058 126.476 173.267 125.813C173.102 125.674 172.851 125.432 172.514 125.087C171.525 123.912 170.739 122.516 170.154 120.898C169.567 119.246 169.265 117.645 169.249 116.097C169.227 115.264 169.268 114.562 169.371 113.99C169.472 113.385 169.681 112.762 170 112.121C170.142 111.802 170.445 111.367 170.908 110.815C171.201 110.466 171.575 110.169 172.031 109.925C172.502 109.662 172.956 109.495 173.392 109.422C173.81 109.335 174.111 109.368 174.295 109.522C174.461 109.661 174.546 109.764 174.552 109.832C174.574 109.881 174.503 109.947 174.34 110.029L174.108 110.305L175.139 110.701C175.367 110.766 175.623 110.871 175.908 111.017C176.193 111.162 176.437 111.319 176.639 111.489C176.97 111.767 177.529 112.408 178.315 113.412C179.083 114.401 179.571 115.108 179.778 115.533C179.864 115.73 180.026 115.929 180.265 116.129L181.203 118.091C181.197 118.211 181.215 118.32 181.257 118.419C181.3 118.517 181.372 118.562 181.474 118.553C181.547 118.615 181.674 118.894 181.853 119.389C182.03 119.85 182.095 120.109 182.049 120.164C182.034 120.182 182.02 120.218 182.007 120.27C181.976 120.307 181.988 120.348 182.044 120.394C182.117 120.456 182.202 120.747 182.299 121.266C182.411 121.768 182.492 122.306 182.542 122.88C182.605 123.403 182.561 124.071 182.411 124.885C182.258 125.665 182.065 126.193 181.834 126.469ZM180.027 125.094C180.397 124.652 180.562 124.195 180.52 123.722C180.575 123.172 180.531 122.477 180.389 121.638C180.245 120.765 180.027 120.034 179.738 119.446C179.634 119.046 179.491 118.676 179.308 118.334C179.14 117.974 178.768 117.316 178.19 116.362C178.114 116.079 177.961 115.794 177.732 115.508C177.5 115.187 177.264 114.927 177.025 114.726C176.216 114.047 175.684 113.523 175.431 113.154C174.916 112.722 174.586 112.461 174.442 112.371C174.28 112.266 174.071 112.216 173.816 112.222C173.481 112.285 173.213 112.436 173.012 112.675C172.904 112.804 172.777 113.105 172.631 113.577C172.467 114.035 172.369 114.376 172.337 114.6C172.282 114.741 172.231 114.839 172.184 114.894C172.092 115.005 171.989 115.09 171.875 115.151C171.758 115.179 171.663 115.161 171.589 115.1C171.46 114.992 171.35 114.993 171.257 115.103C171.134 115.25 171.074 115.545 171.079 115.987C171.084 116.43 171.137 116.945 171.24 117.532C171.287 118.073 171.387 118.627 171.538 119.193C171.687 119.725 171.798 120.022 171.872 120.083C171.927 120.13 171.997 120.251 172.083 120.448C172.183 120.627 172.264 120.773 172.325 120.887C172.42 121.185 172.632 121.661 172.961 122.313C173.273 122.95 173.515 123.389 173.69 123.629L175.179 124.879C175.638 125.265 176.02 125.538 176.324 125.699C176.627 125.86 176.979 125.982 177.378 126.066C177.568 126.101 177.825 126.113 178.148 126.101C178.47 126.09 178.675 126.089 178.761 126.099C178.997 126.078 179.174 126.054 179.291 126.027C179.405 125.966 179.516 125.871 179.624 125.742C179.747 125.595 179.882 125.379 180.027 125.094ZM189.397 117.344C189.233 117.426 188.95 117.502 188.548 117.572C188.145 117.641 187.83 117.643 187.603 117.578C187.569 117.581 187.506 117.544 187.414 117.466C187.285 117.358 187.161 117.207 187.042 117.013C186.923 116.819 186.887 116.695 186.933 116.64C187.034 116.631 187.02 116.368 186.889 115.851C186.756 115.301 186.651 114.978 186.575 114.882C186.517 114.802 186.499 114.693 186.521 114.555C186.54 114.383 186.555 114.271 186.568 114.219C186.498 114.003 186.45 113.743 186.423 113.439C186.393 113.101 186.365 112.873 186.338 112.757C186.307 112.606 186.276 112.345 186.244 111.973C186.193 111.585 186.154 111.24 186.127 110.935C186.093 110.155 186.05 109.571 185.999 109.183C185.772 107.363 185.591 106.366 185.456 106.19C185.454 106.156 185.448 106.088 185.439 105.987C185.43 105.886 185.436 105.766 185.458 105.628C185.506 105.198 185.511 104.763 185.472 104.323C185.359 104.197 185.241 103.926 185.12 103.511C184.998 103.095 184.923 102.719 184.893 102.381C184.814 102.064 184.702 101.75 184.555 101.439C184.406 101.095 184.262 100.817 184.125 100.608L183.923 100.345C183.849 100.283 183.756 100.283 183.642 100.344C183.51 100.389 183.371 100.461 183.226 100.559C183.097 100.638 182.992 100.707 182.912 100.765C182.429 101.08 182.056 101.394 181.793 101.706C181.223 102.387 180.885 103.294 180.779 104.427C180.619 104.731 180.513 104.987 180.463 105.196C180.296 105.619 180.165 105.869 180.069 105.946C180.004 105.985 179.852 105.999 179.613 105.986C179.373 105.973 179.169 105.973 178.999 105.988L178.189 105.778L178.437 104.53C178.64 102.757 179.096 101.448 179.806 100.603C180.053 100.308 180.306 100.082 180.564 99.923C180.703 99.7576 180.86 99.6075 181.036 99.4729C181.211 99.3383 181.324 99.2603 181.373 99.239C181.54 99.0029 181.954 98.8645 182.614 98.8237C183.291 98.7646 183.899 98.805 184.439 98.9452C184.955 99.0022 185.388 99.1773 185.737 99.4704C186.289 99.9332 186.75 100.821 187.12 102.135C187.259 102.94 187.432 104.135 187.638 105.718C187.845 107.301 187.945 108.246 187.938 108.554C187.863 108.867 187.948 109.847 188.195 111.495C188.441 113.143 188.595 113.93 188.657 113.857L188.712 113.903C188.602 113.811 188.942 113.125 189.733 111.846C190.521 110.534 191.178 109.565 191.702 108.94C191.872 108.738 192.006 108.615 192.104 108.572C192.209 108.597 192.269 108.601 192.284 108.582C192.297 108.53 192.294 108.496 192.275 108.481C192.217 108.401 192.288 108.241 192.489 108.002C192.844 107.579 193.343 107.152 193.987 106.721C194.051 106.682 194.156 106.613 194.301 106.515C194.461 106.399 194.583 106.328 194.666 106.304C194.749 106.28 194.809 106.283 194.845 106.314C194.879 106.311 194.957 106.33 195.08 106.37C195.2 106.377 195.354 106.38 195.541 106.381C195.809 106.323 195.988 106.333 196.08 106.41C196.209 106.518 196.142 106.729 195.88 107.041C195.695 107.262 195.34 107.591 194.816 108.029C194.415 108.507 194.111 108.925 193.904 109.284C193.895 109.37 193.776 109.568 193.547 109.877C193.316 110.153 193.138 110.364 193.015 110.511C192.919 110.588 192.802 110.709 192.663 110.874C192.309 111.297 191.936 112.003 191.545 112.991C191.371 113.534 191.018 114.366 190.486 115.486C189.954 116.605 189.591 117.225 189.397 117.344Z" fill="black"/>
</svg>
