<svg width="446" height="340" viewBox="0 0 446 340" fill="none" xmlns="http://www.w3.org/2000/svg">
<line x1="2.5" y1="5.56201" x2="2.5" y2="71.5206" stroke="black" stroke-width="5"/>
<rect x="2.5" y="68.4468" width="440" height="269.053" rx="2.5" fill="#DADADA" stroke="black" stroke-width="5"/>
<rect x="2.5" y="3.41699" width="440" height="24.7278" rx="2.5" fill="#DADADA" stroke="black" stroke-width="5"/>
<rect x="15.479" y="170.636" width="414.042" height="153.858" rx="2.5" fill="#3E3E3E" stroke="black" stroke-width="5"/>
<rect x="15.479" y="81.4526" width="414.042" height="75.8225" rx="2.5" fill="#3E3E3E" stroke="black" stroke-width="5"/>
<rect x="15.479" y="119.542" width="414.042" height="37.7337" rx="2.5" fill="white" stroke="black" stroke-width="5"/>
<path d="M415.721 123.204C415.721 136.093 404.924 146.672 391.442 146.672C377.961 146.672 367.164 136.093 367.164 123.204C367.164 110.314 377.961 99.7354 391.442 99.7354C404.924 99.7354 415.721 110.314 415.721 123.204Z" fill="#DADADA" stroke="black" stroke-width="5"/>
<path d="M66.1041 190.432C66.1041 196.239 61.4076 200.938 55.6249 200.938C49.8423 200.938 45.1458 196.239 45.1458 190.432C45.1458 184.625 49.8423 179.926 55.6249 179.926C61.4076 179.926 66.1041 184.625 66.1041 190.432Z" fill="#DADADA" stroke="black" stroke-width="5"/>
<path d="M251.521 189.364C251.521 193.119 248.484 196.154 244.75 196.154C241.015 196.154 237.979 193.119 237.979 189.364C237.979 185.609 241.015 182.574 244.75 182.574C248.484 182.574 251.521 185.609 251.521 189.364Z" fill="#DADADA" stroke="black" stroke-width="5"/>
<path d="M298.802 189.503C298.802 193.258 295.766 196.293 292.031 196.293C288.297 196.293 285.26 193.258 285.26 189.503C285.26 185.748 288.297 182.713 292.031 182.713C295.766 182.713 298.802 185.748 298.802 189.503Z" fill="#DADADA" stroke="black" stroke-width="5"/>
<path d="M346.083 189.642C346.083 193.397 343.047 196.432 339.313 196.432C335.578 196.432 332.542 193.397 332.542 189.642C332.542 185.888 335.578 182.853 339.313 182.853C343.047 182.853 346.083 185.888 346.083 189.642Z" fill="#DADADA" stroke="black" stroke-width="5"/>
<path d="M393.365 189.782C393.365 193.537 390.328 196.572 386.594 196.572C382.859 196.572 379.823 193.537 379.823 189.782C379.823 186.027 382.859 182.992 386.594 182.992C390.328 182.992 393.365 186.027 393.365 189.782Z" fill="#DADADA" stroke="black" stroke-width="5"/>
<path d="M130.113 190.293C130.113 196.1 125.416 200.798 119.634 200.798C113.851 200.798 109.155 196.1 109.155 190.293C109.155 184.485 113.851 179.787 119.634 179.787C125.416 179.787 130.113 184.485 130.113 190.293Z" fill="#DADADA" stroke="black" stroke-width="5"/>
<line x1="16.6875" y1="208.37" x2="432.021" y2="208.37" stroke="black" stroke-width="5"/>
<line x1="16.6875" y1="218.589" x2="432.021" y2="218.589" stroke="black" stroke-width="5"/>
<line x1="15.479" y1="132.053" x2="259.864" y2="132.053" stroke="black" stroke-width="5" stroke-linecap="round"/>
<line x1="15.479" y1="146.917" x2="259.864" y2="146.917" stroke="black" stroke-width="5" stroke-linecap="round"/>
<line x1="16.6875" y1="228.808" x2="432.021" y2="228.808" stroke="black" stroke-width="5"/>
<line x1="16.6875" y1="239.956" x2="432.021" y2="239.956" stroke="black" stroke-width="5"/>
<line x1="16.6875" y1="251.104" x2="432.021" y2="251.104" stroke="black" stroke-width="5"/>
<line x1="16.6875" y1="262.251" x2="432.021" y2="262.251" stroke="black" stroke-width="5"/>
<line x1="16.6875" y1="272.47" x2="432.021" y2="272.47" stroke="black" stroke-width="5"/>
<line x1="16.6875" y1="282.689" x2="432.021" y2="282.689" stroke="black" stroke-width="5"/>
<line x1="16.6875" y1="293.837" x2="432.021" y2="293.837" stroke="black" stroke-width="5"/>
<line x1="16.6875" y1="304.056" x2="432.021" y2="304.056" stroke="black" stroke-width="5"/>
<line x1="16.6875" y1="316.133" x2="432.021" y2="316.133" stroke="black" stroke-width="5"/>
<line x1="442.865" y1="12.9941" x2="442.865" y2="78.9527" stroke="black" stroke-width="5"/>
</svg>
