<svg width="175" height="275" viewBox="0 0 175 275" fill="none" xmlns="http://www.w3.org/2000/svg">
<rect x="172.5" y="2.5" width="270" height="170" rx="7.5" transform="rotate(90 172.5 2.5)" fill="#3E3E3E" stroke="black" stroke-width="5"/>
<rect x="156.315" y="18.5" width="238" height="110.318" rx="4.5" transform="rotate(90 156.315 18.5)" fill="#CEC252" stroke="black" stroke-width="5"/>
<rect x="148.223" y="26.5" width="222" height="34.4509" rx="4.5" transform="rotate(90 148.223 26.5)" fill="white" stroke="black" stroke-width="5"/>
<rect x="104.725" y="50.5" width="174" height="35.4624" rx="4.5" transform="rotate(90 104.725 50.5)" fill="#3E3E3E" stroke="black" stroke-width="5"/>
<rect x="104.725" y="122.5" width="30" height="35.4624" transform="rotate(90 104.725 122.5)" fill="#3E3E3E" stroke="black" stroke-width="5"/>
<path d="M86.9941 212.5C77.1743 212.5 69.2629 204.638 69.2629 195C69.2629 185.362 77.1743 177.5 86.9941 177.5C96.814 177.5 104.725 185.362 104.725 195C104.725 204.638 96.814 212.5 86.9941 212.5Z" fill="#292929" stroke="black" stroke-width="5"/>
<path d="M86.9941 97.5C77.1743 97.5 69.2629 89.638 69.2629 80C69.2629 70.362 77.1743 62.5 86.9941 62.5C96.814 62.5 104.725 70.362 104.725 80C104.725 89.638 96.814 97.5 86.9941 97.5Z" fill="#292929" stroke="black" stroke-width="5"/>
</svg>
