<svg width="1351" height="423" viewBox="0 0 1351 423" fill="none" xmlns="http://www.w3.org/2000/svg">
<rect x="636.907" y="246.5" width="601" height="81" rx="2.5" fill="#DADADA" stroke="black" stroke-width="5"/>
<rect x="636.907" y="328.5" width="601" height="92" rx="2.5" fill="white" stroke="black" stroke-width="5"/>
<rect x="1238.5" y="358.5" width="110" height="13" rx="2.5" fill="white" stroke="black" stroke-width="5"/>
<path d="M1047.91 283.5C1047.91 289.774 1043.3 295.979 1034.69 300.76C1026.17 305.494 1014.23 308.5 1000.91 308.5C987.581 308.5 975.64 305.494 967.119 300.76C958.514 295.979 953.907 289.774 953.907 283.5C953.907 277.226 958.514 271.021 967.119 266.24C975.64 261.506 987.581 258.5 1000.91 258.5C1014.23 258.5 1026.17 261.506 1034.69 266.24C1043.3 271.021 1047.91 277.226 1047.91 283.5Z" fill="#919191" stroke="black" stroke-width="5"/>
<path d="M755.907 286.5C755.907 292.774 751.3 298.979 742.694 303.76C734.174 308.494 722.233 311.5 708.907 311.5C695.581 311.5 683.64 308.494 675.119 303.76C666.514 298.979 661.907 292.774 661.907 286.5C661.907 280.226 666.514 274.021 675.119 269.24C683.64 264.506 695.581 261.5 708.907 261.5C722.233 261.5 734.174 264.506 742.694 269.24C751.3 274.021 755.907 280.226 755.907 286.5Z" fill="#919191" stroke="black" stroke-width="5"/>
<path d="M903.907 283.5C903.907 289.774 899.3 295.979 890.694 300.76C882.174 305.494 870.233 308.5 856.907 308.5C843.581 308.5 831.64 305.494 823.119 300.76C814.514 295.979 809.907 289.774 809.907 283.5C809.907 277.226 814.514 271.021 823.119 266.24C831.64 261.506 843.581 258.5 856.907 258.5C870.233 258.5 882.174 261.506 890.694 266.24C899.3 271.021 903.907 277.226 903.907 283.5Z" fill="#919191" stroke="black" stroke-width="5"/>
<path d="M1195.91 283.5C1195.91 289.774 1191.3 295.979 1182.69 300.76C1174.17 305.494 1162.23 308.5 1148.91 308.5C1135.58 308.5 1123.64 305.494 1115.12 300.76C1106.51 295.979 1101.91 289.774 1101.91 283.5C1101.91 277.226 1106.51 271.021 1115.12 266.24C1123.64 261.506 1135.58 258.5 1148.91 258.5C1162.23 258.5 1174.17 261.506 1182.69 266.24C1191.3 271.021 1195.91 277.226 1195.91 283.5Z" fill="#919191" stroke="black" stroke-width="5"/>
<path d="M670 298C684.781 289.699 721.274 278.078 749 298" stroke="black" stroke-width="5"/>
<path d="M818 295C833.155 286.699 870.572 275.078 899 295" stroke="black" stroke-width="5"/>
<path d="M961 295C976.155 286.699 1013.57 275.078 1042 295" stroke="black" stroke-width="5"/>
<path d="M1109 295C1123.97 286.699 1160.92 275.078 1189 295" stroke="black" stroke-width="5"/>
<line x1="686.907" y1="284.48" x2="686.907" y2="305.48" stroke="black" stroke-width="5" stroke-linecap="round"/>
<line x1="977.907" y1="284.48" x2="977.907" y2="305.48" stroke="black" stroke-width="5" stroke-linecap="round"/>
<line x1="730.907" y1="284.48" x2="730.907" y2="305.48" stroke="black" stroke-width="5" stroke-linecap="round"/>
<line x1="1021.91" y1="284.48" x2="1021.91" y2="305.48" stroke="black" stroke-width="5" stroke-linecap="round"/>
<rect x="675.407" y="235.98" width="67" height="48" rx="5" fill="black"/>
<rect x="966.407" y="235.98" width="67" height="48" rx="5" fill="black"/>
<line x1="1221.51" y1="277.993" x2="1201.18" y2="272.755" stroke="black" stroke-width="5" stroke-linecap="round"/>
<line x1="1210.54" y1="320.602" x2="1190.2" y2="315.365" stroke="black" stroke-width="5" stroke-linecap="round"/>
<rect x="1271.35" y="278.951" width="67" height="48" rx="5" transform="rotate(104.441 1271.35 278.951)" fill="black"/>
<path d="M708.907 234.981C704.635 198.224 698.994 140.786 696.614 92.9806M696.614 92.9806C694.536 51.2607 684.907 23.4805 700.907 9.98059C723.327 -8.93626 762.907 11.9806 765.407 55.9806C767.907 99.9806 682.407 133.481 663.907 114.981C645.407 96.4806 663.907 83.9805 696.614 92.9806ZM696.614 92.9806C734.407 92.9806 795.407 124.98 795.407 163.981C795.407 210.189 663.907 193.98 680.907 200.481C695.111 205.912 813.407 206.481 822.407 181.981C831.407 157.481 808.149 90.2866 822.407 75.4806C835.407 61.9806 812.907 126.481 816.407 146.981C819.907 167.481 869.128 160.77 877.407 149.481C888.407 134.481 859.407 64.4806 870.907 69.9806C882.407 75.4806 846.907 205.481 888.407 200.481C929.907 195.481 921.614 163.332 919.407 134.481C917.303 106.98 937.907 65.4806 959.907 64.9806C981.907 64.4806 997.907 132.481 985.407 163.981C972.907 195.481 955.907 190.481 942.907 186.981C916.724 179.931 914.12 114.407 919.407 94.4806C925.907 69.9806 971.907 59.9806 1006.41 64.9806M1006.41 64.9806C1040.91 69.9806 1067.41 80.9805 1062.91 103.481C1057.43 130.889 1022.41 145.98 1006.41 142.481C990.769 139.06 999.348 124.824 1006.41 121.481C1015.91 116.98 1067.41 148.98 1067.41 163.981C1067.41 181.981 1024.41 195.48 1006.41 194.98C992.007 194.58 1000.41 106.647 1006.41 64.9806ZM1006.41 64.9806C1031.07 60.6472 1082.11 53.7806 1088.91 60.9806C1097.41 69.9806 1075.41 165.981 1097.91 190.481C1120.41 214.981 1149.91 175.48 1143.91 153.981C1137.73 131.843 1088.91 120.981 1081.41 142.481C1073.91 163.981 1068.62 189.036 1081.41 208.981C1093.91 228.48 1252.97 274.881 1276.41 227.481C1298.91 181.981 1398.91 250.981 1369.41 299.481C1345.81 338.281 1312.57 327.314 1260.41 308.48" stroke="black" stroke-width="5" stroke-linecap="round"/>
<path d="M699.407 9.98047C665.24 35.4805 592.807 101.68 576.407 162.48C555.907 238.48 595.907 365.48 576.407 375.98C556.907 386.48 432.407 338.48 379.407 375.98C326.407 413.48 244.907 425.48 206.407 406.98C167.907 388.48 152.407 371.98 67.4068 406.98C-0.593246 434.98 -1.59325 465.314 6.40675 476.98" stroke="black" stroke-width="5" stroke-linecap="round"/>
<path d="M998.407 161.48V247.48" stroke="black" stroke-width="5" stroke-linecap="round"/>
</svg>
